<?xml version="1.0" encoding="utf-8"?>
<!-- Generator: Adobe Illustrator 22.0.1, SVG Export Plug-In . SVG Version: 6.00 Build 0)  -->
<svg version="1.1" id="Layer_3" xmlns="http://www.w3.org/2000/svg" xmlns:xlink="http://www.w3.org/1999/xlink" x="0px" y="0px"
	 viewBox="0 0 1000 1000" style="enable-background:new 0 0 1000 1000;" xml:space="preserve">
<style type="text/css">
	.st0{fill:url(#SVGID_1_);}
	.st1{fill:url(#SVGID_2_);}
	.st2{fill:url(#SVGID_3_);}
	.st3{fill:url(#SVGID_4_);}
	.st4{fill:url(#SVGID_5_);}
	.st5{fill:url(#SVGID_6_);}
	.st6{fill:url(#SVGID_7_);}
	.st7{fill:url(#SVGID_8_);}
	.st8{fill:url(#SVGID_9_);}
	.st9{fill:url(#SVGID_10_);}
	.st10{fill:none;}
	.st11{fill:#FFFFFF;}
</style>
<g>
	<g>
		<radialGradient id="SVGID_1_" cx="499.4419" cy="516.6277" r="518.5878" gradientUnits="userSpaceOnUse">
			<stop  offset="0" style="stop-color:#F2F2F2"/>
			<stop  offset="0.2171" style="stop-color:#EFEFEF"/>
			<stop  offset="0.4002" style="stop-color:#E4E4E4"/>
			<stop  offset="0.5709" style="stop-color:#D3D3D3"/>
			<stop  offset="0.7341" style="stop-color:#BABABA"/>
			<stop  offset="0.8905" style="stop-color:#9B9B9B"/>
			<stop  offset="1" style="stop-color:#808080"/>
		</radialGradient>
		<polygon class="st0" points="526.8,30 523.3,507.3 646.1,338.3 		"/>
		<radialGradient id="SVGID_2_" cx="499.4419" cy="516.6277" r="518.5878" gradientUnits="userSpaceOnUse">
			<stop  offset="0" style="stop-color:#F2F2F2"/>
			<stop  offset="0.2171" style="stop-color:#EFEFEF"/>
			<stop  offset="0.4002" style="stop-color:#E4E4E4"/>
			<stop  offset="0.5709" style="stop-color:#D3D3D3"/>
			<stop  offset="0.7341" style="stop-color:#BABABA"/>
			<stop  offset="0.8905" style="stop-color:#9B9B9B"/>
			<stop  offset="1" style="stop-color:#808080"/>
		</radialGradient>
		<polygon class="st1" points="646.1,338.3 523.3,507.3 976.2,356.5 		"/>
	</g>
	<g>
		<linearGradient id="SVGID_3_" gradientUnits="userSpaceOnUse" x1="680.1171" y1="557.8305" x2="896.8851" y2="503.3864">
			<stop  offset="0" style="stop-color:#66AEFF"/>
			<stop  offset="1" style="stop-color:#0044FF"/>
		</linearGradient>
		<polygon class="st2" points="992.5,406.6 537.4,550.7 738.2,616 		"/>
		<linearGradient id="SVGID_4_" gradientUnits="userSpaceOnUse" x1="738.918" y1="902.6658" x2="637.0873" y2="581.0425">
			<stop  offset="0" style="stop-color:#66AEFF"/>
			<stop  offset="1" style="stop-color:#0044FF"/>
		</linearGradient>
		<polygon class="st3" points="537.4,550.7 820.9,934.9 738.2,616 		"/>
	</g>
	<g>
		<linearGradient id="SVGID_5_" gradientUnits="userSpaceOnUse" x1="457.8683" y1="728.1829" x2="268.0613" y2="1023.4383">
			<stop  offset="0" style="stop-color:#FF6666"/>
			<stop  offset="1" style="stop-color:#B80000"/>
		</linearGradient>
		<polygon class="st4" points="222.7,965.9 500.4,790 500.4,577.6 		"/>
		<linearGradient id="SVGID_6_" gradientUnits="userSpaceOnUse" x1="518.4348" y1="512.3939" x2="592.2486" y2="735.5929">
			<stop  offset="0" style="stop-color:#FF6666"/>
			<stop  offset="1" style="stop-color:#B80000"/>
		</linearGradient>
		<polygon class="st5" points="500.4,577.6 500.4,790 778.2,965.9 		"/>
	</g>
	<g>
		<linearGradient id="SVGID_7_" gradientUnits="userSpaceOnUse" x1="304.0158" y1="538.3658" x2="155.8069" y2="425.4448">
			<stop  offset="0" style="stop-color:#66AEFF"/>
			<stop  offset="1" style="stop-color:#0044FF"/>
		</linearGradient>
		<polygon class="st6" points="8.4,406.6 262.7,616 463.5,550.8 		"/>
		<linearGradient id="SVGID_8_" gradientUnits="userSpaceOnUse" x1="268.6891" y1="864.2206" x2="349.347" y2="624.2634">
			<stop  offset="0" style="stop-color:#66AEFF"/>
			<stop  offset="1" style="stop-color:#0044FF"/>
		</linearGradient>
		<polygon class="st7" points="463.5,550.8 262.7,616 180.1,934.9 		"/>
	</g>
	<g>
		<radialGradient id="SVGID_9_" cx="499.4419" cy="516.6277" r="518.5878" gradientUnits="userSpaceOnUse">
			<stop  offset="0" style="stop-color:#F2F2F2"/>
			<stop  offset="0.2171" style="stop-color:#EFEFEF"/>
			<stop  offset="0.4002" style="stop-color:#E4E4E4"/>
			<stop  offset="0.5709" style="stop-color:#D3D3D3"/>
			<stop  offset="0.7341" style="stop-color:#BABABA"/>
			<stop  offset="0.8905" style="stop-color:#9B9B9B"/>
			<stop  offset="1" style="stop-color:#808080"/>
		</radialGradient>
		<polygon class="st8" points="474.1,30 354.9,338.3 477.6,507.3 		"/>
		<radialGradient id="SVGID_10_" cx="499.4419" cy="516.6277" r="518.5878" gradientUnits="userSpaceOnUse">
			<stop  offset="0" style="stop-color:#F2F2F2"/>
			<stop  offset="0.2171" style="stop-color:#EFEFEF"/>
			<stop  offset="0.4002" style="stop-color:#E4E4E4"/>
			<stop  offset="0.5709" style="stop-color:#D3D3D3"/>
			<stop  offset="0.7341" style="stop-color:#BABABA"/>
			<stop  offset="0.8905" style="stop-color:#9B9B9B"/>
			<stop  offset="1" style="stop-color:#808080"/>
		</radialGradient>
		<polygon class="st9" points="354.9,338.3 24.7,356.5 477.6,507.3 		"/>
	</g>
</g>
<g>
	<g>
		<path d="M558.6,557.8c-16.2-40.8-99.6-109-130.1-121c1-1.4,7.1-9.9,8.4-12.6c0,0,10.4-26.4,11.2-30.7c0.8-4.3,10.8-0.8,14.3-5.8
			c3.5-5.1,9.8-12,8-21.3c-1.9-9.3-7.4-14.9-7.4-14.9s1-15.8-8.2-35.9c-15.3-33.3-66.4-36.4-91.7-13.1c-17,15.6-11.6,23.4-19.6,36
			c-1.4,1.4-7.7,5.4-8.5,7.5c-0.7,2-3.2,16.6-4.6,25.3c-0.7,4.1,1,8.3,4.4,10.7c2.3,1.7,4.9,3.3,6.8,3.7c1.8,0.5,4.4,0.5,6.8,0.4
			c3.2-0.1,6,2.1,6.6,5.3c0.7,3.8,2,8.4,4.2,10c-0.3,11.2-5.8,21.4-5.8,21.4c-2.8,7.9-2.8,11.6-2.8,11.6c-3.1,1.3-7.6-4.2-10.7-2.8
			c-15.9,7.7-32.8,17.3-32.8,17.3c0,0-18.7,12-25.8,18.5c-21,19.2-24,52.4-25.6,58.4c-0.5,2-4.5,8.6-5.2,10.9
			c0.2,0.9,2,10.3,1.9,18.5c0,4.9-2.3,10.1-1.9,13.6c0.5,4.6,4.8,10.3,5.2,13.1c3.8,22.4,7.6,34.6,25.1,53.8
			c6.1,1,12.4,0.8,17.6,0.5c4.1-0.2,7.8,2.5,8.8,6.4c1.8,6.7,2.2,8.9,4,12.3c8.1,15.6,4,23.8-1.3,47.7
			c33.4,30.6,77.4,71.3,184.9,71.3l-7.9-70.6c0,0-0.8-12.8-1.7-28.3c-1.1-18.9,16.7,4.5,27.7-82.6c2.5-10.3,26.6-7,50.5-2.8
			c0,0,0,0,0,0c17.2,11.4,35.1,22.5,54,31C632.3,627.4,558.6,557.8,558.6,557.8z"/>
	</g>
	<g>
		<polygon class="st10" points="680.6,655.6 654.7,640.1 652.6,642.8 678.8,659.1 		"/>
		<g>
			<g>
				<g>
					<path d="M767,709.2l-31.6-18.8l-2.7,0.2l-5-2.9l9.6-16.7l-8.1-4.7l-13,15.5l-24.4-14.5c0,0-2-1.2-2.6-1.6
						c-0.2-0.1-0.3-0.3-0.5-0.4c-1.7-2.1,0.3-7.9,0.3-7.9s3.3-3.9,2.5-7l-1.8-1.1l-29.4-17.3l-2.6-1.6l1.6-5.4l-2.7-1.7
						c0,0,0-0.1,0.7-1.1l-21.2,31.8l4.1,2.3l0,0l3-3l67.7,38.4l0.8-1.4l16.1,9.2l1.2,2.4l31.8,18.8c0,0,1.8,0.7,4.9-4.8
						C766.2,714.5,768.4,709.9,767,709.2z"/>
				</g>
			</g>
		</g>
	</g>
	<g>
		<polygon class="st11" points="717.4,560.8 717.4,560.8 717.4,560.8 		"/>
	</g>
	<path d="M969.6,699.9l-22.8-14.7l-2.1-0.4l-4.2-2.7c0,0,9.9-13.7,8.3-14.7c0,0-0.3-0.2-0.6-0.4c-0.3-0.2-0.5-0.2-0.8-0.2
		c-0.6,0.1-1.7,0.2-2,0c-0.3-0.2-0.7-1.2-0.9-1.8c-0.1-0.3-0.3-0.5-0.5-0.7l-1.3-0.8c-0.6-0.4-3.1,1.7-2.7,3.7
		c-3.3,2.5-8.9,8.9-8.9,8.9l-59.4-38.2c0,0,0.3-1.1-0.4-1.6c-6.6-4.8-3.6-9.6-3.6-9.6c-0.3-0.6-1-2-1.6-2.4l-16.7-10.9l-3.2-0.8
		l-7.5-4.8l0.3-3.5l-1.7-1.7c-6.8,10.6-11.5,16.8-11.5,16.8s-81.1-52.1-82.9-53.3c-6.3-4-7.8-2.6-14.5-5.4c-3.4-1.4-4.7-5.7-2.7-8.8
		l6.7-10.4l-4-1.4l-7.1,9.3c-2-6.9-6.4-14.9-9.3-22.6c1.2-3,1-6.6-0.7-10.1c-17.2-34.4-49.1-72.1-52.6-81.2
		c-1.8-4.6-19.5-15.5-19.5-15.5s-1.1-3.9-1.7-5.2c-0.5-1.1-11.7-11.4-15.9-14.6c4.1-2.7,8-5.3,8.5-5.7c16.8-13.2,20.7-8.7,24.7-16.8
		c3.5-7.1,13.5-22.9,13.3-28.7c-0.2-5.9-3.7-10.6-5.5-12.8c-1.8-2.1-6.4-15.1-8.3-26.3c-1-5.7-5.6-14.9-9.6-21
		c0,0-20.5-31.2-61.1-29.7c-45.9,1.8-50.5,57.4-53.7,62.8c-3.2,5.3-3.9,22.4-3.9,24.1c0,1.8-9.6,12.4-11,17.4
		c-1.1,4,4.4,13.1,4.2,13.5c0,0-43.8,24.3-43.8,24.3c-11,6.1-16.1,11.7-34.3,42l0,0c0.2,0.2,0.5,0.3,0.7,0.5c1,0.7,2,1.5,3,2.3
		c5.6,40.9,11.2,81.8,20.3,122.1c7.2,32.1,22,136.8,22,136.8l7.9,69c30.2-1,96.2,1.8,162.2-51.3c2.5-2,4-65.3,2.8-100.8
		c-0.6-17.7-1.2-26.5-1.2-26.5c14.1,0,29.1-10.7,35.5-17c2.7-2.7,4.5-6.3,5.5-10.6c0.4-1.5,14.9,0.9,20.3-5.4c0,0,22.9,11.2,25.6,13
		c0,0,69.3,44.4,70.5,45.2c1.2,0.8,1.9,0.8,2.7,0.4c2.3,1.5,7.8,4.4,9.7,1.5l4.8,3.1l1.6-2.5l91.7,59l-1.8,2.7l4.8,3.1l3.5-1.6
		l7.6,5l1.3,1.7l22.9,14.6C967,707.3,970.1,702.1,969.6,699.9z"/>
	<path class="st11" d="M817.8,688.4h-59.4c34.7-50.7,53.5-110.6,53.7-173.4c0.3-81.1-31.4-159.5-88.1-217.6
		c-60.3-61.8-141.6-95.2-228-93.5c-76.3,1.4-149.8,31.2-205.5,83.3c-63.4,59.3-98.5,140.3-98.5,226.7c0,63.2,18.8,123.5,53.7,174.5
		h-61.4v126.1h633.6V688.4z M209,513.9c0-161.6,131.5-293,293-293c161.6,0,293,131.5,293,293c0,65.3-21.5,125.7-57.8,174.5H266.8
		C230.5,639.6,209,579.2,209,513.9z"/>
	<path class="st11" d="M549.1,413.5c0,0-6.5-5.3-13.4-5.6c-2.3-0.1-4.4-1.1-5.7-2.9c-5.5-7.8-14.4-16-14.4-16l11-5.3
		C534.2,390.2,537.1,389.3,549.1,413.5z M631.1,288c-3.1-15.8-63.1-30.7-73.8-9.8c-3.6,7,13.1-4.3,11.1,4.2
		c-1.8,7.8-22.7,9-22.3,22.6c0.5,17.9-5.4,21,1.1,24.1c3.7,1.8,4-11.7,8.4-16.8c8.7-10.1,43.4-6.1,53.4-14.6
		C615.3,292.4,632.2,293.4,631.1,288z M536.4,528.4c6.3,4.6,27.1-12.7,19.2-24.6c-2.5-3.7-5.6,13.6-10.1,13
		c-7.2-1.1,11.1-22.1,8-30.7c-1.4-4-14.2,2-14-0.8c0.2-2.5,9.5-3.1,3.4-9.3c-3.1-3.2-12.7,10.9-12.2,13.6
		C533.6,504.7,511.4,510.1,536.4,528.4z M476.3,412.3c-4.4,6-2.1,18.1-5.6,19.3c-6,2.1-5.2-17.7-22.9,17.3c0,0,8,9.1,14.2,10.2
		l16.2-30.2c0,0,16.9-11.9,23-20.9c6.1-9.1,2.7-7.2,0-9.3C501.2,398.6,480.7,406.4,476.3,412.3z M511.9,504.7
		c4.9-4.6,15.2-20.6,13.3-28c-0.6-2.5-7.1,2-10.7,1.5c-3.7-0.5-3.4-4.4-7.7-4.8c0,0-16.2,3-17.5,6.1
		C487.7,483,509.5,507,511.9,504.7z M356,545.5c8-10.8-50.1-32.2-52.5-34.9c0,0-10.5,19.4-13.7,23c-3.2,3.6-6,7.4-1.4,8.6
		c4.6,1.2,35.3,16,32.9,8C315.7,531.6,352.3,550.5,356,545.5z M348.9,515.7c-3.4-2.5-36.8-24.8-41.4-21.4
		c-2.8,2.1-5.1,10.1,13.1,16.3c29.5,10,29.8,20.4,37.1,20.9C362.5,531.9,353.1,518.8,348.9,515.7z M638.7,333.3
		c0.2,3.7,5,28.7-8.9,46.2c-2.4,3,7.6-24.8,5.7-40.3c-9.4-0.6-36.4-6.5-53.5-12.5c-3.7-1.3,9-8.1,19.3-10.2c1.3-0.3,5.5,0.6,5.5,0.6
		c9.4,5,10.9,7.1,14,3.9c0.8-0.9-3.6-2.7-3.6-2.7s-7.2-3.6-6.4-4.7c2.2-3.1,24.3-6.1,25.8-4c1.7,2.4,3.4,11.6,3.6,15.7
		c-0.8-0.6-2.3-1.2-3.1-1.5c-1.8-0.7-5.8,1.5-5.8,3c0,0.8,7.9,0.9,8.7,2.5C640.4,330.4,639.8,331.9,638.7,333.3z M615.7,325
		c-10.1-3.8-15.9-0.7-16.3-1.1c0,0,13.5,5.8,16.3,7C615.1,328.7,615.7,325,615.7,325z M636.2,331.8c-3-1.4-6.5,0-6.5,0
		s1.3,2.7,3.5,4.1C635.3,337.3,637.8,332.5,636.2,331.8z M421.4,362c5.9,0,17.2-6.3,20.1-1.8c-3.2,0.4-5.5,0.7-8.4,0.7
		c-2,0-4.7,4-1.7,4.1c3.7,0,6.7-1.3,9.1-1.3c1.8,0,3,1.7,3.6,2.6c0,1.9-0.4,3.7-0.5,4.8c-0.4,3.3-3.1,8.3-7.6,8.3
		c-0.5,0-0.9-0.1-1.4-0.3c-3.5-1.7-7.1-7.6-10.2-7.6c-3.4,0-18.9,2.7-26.9,2.7c-8,0-13.6-9-13.6-11.9c0-2.9-0.9-9.5,13.3-9.5
		S419.5,362,421.4,362z M409.9,369.7c0-0.9-0.9-1.3-0.9-2.6c0-1.8-4.7-3.1-10-3.1c-4.5,0-5.1,3.5-5.1,3.8c1.6,0,4.5,2.5,8.3,2.5
		C403,370.4,409.9,370.5,409.9,369.7z M409.9,358.2c-2.5,0-10.7-3.6-14.4-3.6s-7.9,5.9-7.9,5.9l1.2,0.2c0,0,3.1-2.3,5.6-2.1
		c7.9,0.5,14.6,6.2,16.8,3.9C413.1,359.8,411.9,358.2,409.9,358.2z M427,370c0.1,0.1,0.3,0.3,0.4,0.4c0,0,2.9,1.9,7.7,2.7
		c1.5,0.4,2-0.1,3.5-0.5c0,0-0.5-2.6-1-3.1c-0.5-0.5-4.5-2.7-6.8-2.7C428.5,366.8,427,370,427,370z M422.1,571
		c3,13.9,1.3,22.9,2.6,26c1.1,2.4,8.1,9.1,11.5,7.9c3.7-1.2,4.3-14.4,4.3-14.4c0.4-13.7-1.4-29.3-8.9-33.4c-9.5-2.6-19.1-2.9-19,3.7
		C412.6,563.1,421.7,569.1,422.1,571z M583.1,396.2c-9.8,19.4-12.6,24-14.7,20.8c-1.3-2-8.6-9.6-10.3-11.3c-2.7-2.6-5.3-7.1-4.4-8.1
		c2.8-2.8,10.2,5.5,13.7,6.7c10.1,3.3,7.7-5.7-2.2-17.1c-5.5-6.3-10.9-9.9-14.8-17.7c-2.6-5.1-3.2-11-2.3-16.7
		c13.6,24.9,22.8,28.2,34.2,39C583.5,393,583.8,394.8,583.1,396.2z M615.7,406.3c0,0-5.4,17.7-4.1,18.4c1.6,0.9,9.6-15.7,9.6-15.7
		C622.2,407,616.5,402.7,615.7,406.3z M405.5,637.7c-9.6-5.5-42.4-7.2-71.2-1.5c-3.3,0.7-5.3,3.9-3.8,6.9c0.5,1.2,1.1,2.3,1.6,3.5
		c0.9,1.9,8.2,0.6,10.2,0.2c17.4-3.7,44.4-4,61.5-3.2C407.3,643.8,408.5,639.3,405.5,637.7z M409.7,655.5c-0.2-1.7-1.5-3.1-3.2-3.4
		c-13.6-2.7-40.2,0.4-62.5,3.1c-2.4,0.3-3.3,3.4-1.4,4.9c4.3,3.3,5.9,4.6,8.7,4.4c15.6-1.5,36.5-2.9,53.4-2.3
		C408,662.4,410.1,658,409.7,655.5z M430.6,621.9c0-3.9-2.8-6.4-4.4-6.5c-6.1-0.7-14.4-3.1-14.4,3c0,6.2,11.6,17.3,18.6,17.3
		C432.8,635.7,430.6,630,430.6,621.9z M418.8,642.8c-5.8,0-2.7,16.6-0.8,18.1c6.3,4.8,19.2,3.1,19.2,1.6
		C437.2,657.4,427.5,642.8,418.8,642.8z M479.3,646.8c-5.1,0-11.7,1.9-11.8,3c-0.2,2.5-5,3.2-7.2,1.7c-0.7-0.5-1.5-0.7-2.3-0.7
		c-3,0.1-6.6,0-11.1-0.4c-6.1-0.4,3.9,17.1,5.8,20.5c3.6,6.3,16.7,6.4,21.5,1.4c3.3-3.4,3.7-7,4.7-13.5
		C479.9,653.1,482.9,646.8,479.3,646.8z M474.7,618.1c-5.8,0-10.3,4.9-13.9,5.3c-10.7,1.3-21.1-11.1-19.5,6.9
		c0.4,4.2,3.6,11.5,6.4,13.2c2.8,1.8,6.1,2.5,10.2,2.4c0,0-1-5.2-0.5-7.1c0.6-2.6,8.6-1.9,10.2,0.1c0.9,1.1,0.3,5.5,0.3,5.5
		c1.1-0.3,2.2-0.5,3.4-0.9C482.5,640.5,483.4,618.1,474.7,618.1z M525.5,530.7c10.7-0.2-88.4-82.4-92.7-83.1
		c-4.5-0.8-6.2,13.2,0.2,16.7c33,18,38.1,17.8,67.5,52.7L525.5,530.7z M361.3,454.6c-8.3-18.4-7.5-32.6-7.5-32.6
		c-1.8,3.9-4.5,4.6-6.6,7.9c-4.7-0.8-7.6,2-7.6,2c-0.5,14.6,9.6,25.1,13.2,34.2C355.3,472.9,363.9,460.5,361.3,454.6z M530.3,627.9
		c-4.1-6-4.3-4.9-6.4,1.3c-5.8,16.9-10.1,35.1-10.9,53.4c0,0-0.5,0.4,13.3,1.1c1-11.4,2-22.1,5.1-33.7l0,0
		C524.2,643.8,526.7,636.4,530.3,627.9z M562.9,619.6c-0.7-5.2-5-12.5-8.2-14c-1.2-0.6-3.9,1.7-3.7,5c-0.4-0.7-0.8-1.3-1.2-1.8
		c-1.7-2.3-3.6-5-5-7c-1.4-2.1-4.2-3-6.4-1.8c-3.2,1.7-2.3,6.9-0.9,10.2c-2.7,2.1-5.2,4.5-3,11.3l3.5,10.7c0,0-5-0.4-5,5.7
		c0,0.7,0.5,1.9,1.1,3.2c0,0,0.1,0.1,0.1,0.1c0.6,1.5,1.5,2.8,2.3,4.1c0.6,0.1,2.1,0.4,3.7,0.6c2.9,0.4,4.5-1.6,4.8-4
		c0-3.2,3.7,0.3,6.6-2.4c3.7-3.3-1.4-7.8,1.6-7.9c4.5-0.1,4.3-6.5,4.3-6.5S563.7,625.6,562.9,619.6z M485.4,562
		c-1.5-0.4-3,0.8-3.1,2.4c-0.1,3.6-0.4,7.2,1.7,8.4c13.9,7.5,23,8.2,23.7,3.9C508.6,570.6,491.1,563.3,485.4,562z M428.1,509.7
		c1.4-2.5,0.6-5.8-1.9-7.3l-55.5-33.8c-1.6-1.1-3.7-0.1-4.1,1.8c-1.6,8.6-7.4,18.2-13.2,25.5c-4,5-4.1,12.4,1.9,14.7
		C369,516,394.4,522,413,526.5c2.1,0.5,4.3-0.3,5.6-2C422.5,519.5,425,515.2,428.1,509.7z M652,644l26.7,15.7l1.8-4l-26-15.5
		L652,644z M703,549.1c-3.5-1.3-6.4,0.1-5.2,3.9c1.2,3.8,4.1,7.9,9.2,8.8c2.5,0.5,6.7-1.5,6.6-2.9C713.3,555,703,549.1,703,549.1z
		 M689.1,539.8c-0.8-3.1-5.6-8.7-8.2-7.9c-3.1,0.9-3.9,2.9-2.3,7.9c-2.5,0.9-3.6,1.1-4.2,4.1c-0.4,1.9,1.7,7.6,1.7,7.6
		c-1.6,0.8-2,1.7-2.1,2.9c-0.6,5.4,2.7,9.9,6.5,11.4c5.6,2.3,2.5-3.8,8.1-2.4c1.2,0.3,3.3-1.1,3.2-2.6c-0.2-2.9,1.6-1.2,3.7-2.8
		C697.4,556.6,695.1,544.3,689.1,539.8z M404.2,557.3c-13.1,0-22.4,1.6-31.4,5.5c-7,3-19.9,29-24.7,28.7
		c-4.2-0.3,11.4-18.9,6.9-21.1c-3.3-1.6-32.3,22.6-32.9,19.6c-1.7-7.5,25.5-21.5,16.6-20.3c-8.5,2.3-8.9,1.1-22.9,5.1l0,0
		c-22,6.8-21.7,12.4-29.6,13c-8.5,0.7,4.1-7.3,8.1-11.9c0.5-1.2,1-2.6,1.4-4.2c6.1-21.6-26.7-16.1-12.7-45.2c2.7-5.7,4-7.5,12.1-17
		c6.2-7.3,5.3-22.9,9.2-23.7c8.3-1.8,25.4,9.8,35.4,11.8c9.9,1.9-11-50.6-21-43c-6.1,4.7,5.8,22,3.4,24.2c-7.7,7.1-10.3-33-34.8-2
		c-24.7,31.2-15.9,33.8-25.9,61.1c-1.8,4.8-1.3,6.9-0.2,9.5c4.3,4.5,16.2,17.4,16.2,22.2c0,5.8-0.7,10.3-3.7,4.6
		c-1.6-3-5.9-11-9.8-11.3c-8.4-0.6,2.9,42.5,20.2,53.5c7.5,4.8,8.6-5,24.2,6.9c18.3,13.9,77.1-44.8,79.8-43.9
		c5.3,1.6-9.5,23.3-6.6,27c2.2,2.9,12.1,1.3,29.2-5.1c4.3-1.6,9.6-26.8,4.2-26.9C402.4,574.1,410.7,557.3,404.2,557.3z M610.9,623.1
		c11.4,5.4,21.1,14.5,32.7,19.3l13.5-20.2l-46.9-30.5c0,0-1.1-0.7-2.7-1.3c1.2-2-1.6-4.1-1.6-4.1l-26.2-16l-2.7,4.3
		c0,0-85.1-52.1-88.8-54.4c-6.6-4.1-20.1,2.8-24.5,5l-7.3-4.4c1.5-2.3,0.7-5.3-1.7-6.5l-12.3-6.3c-2.6-1.6-6-0.7-7.5,1.9
		c-2.2,3.8-4.8,11.6-7.4,15.2c-2.1,2.9-14.4,14.1-11,15.3c0,0,16.9,7.1,22.8,6.7c5.9-0.5,2.1-4.2,8.5-3.5c0.1,0,47.4,15.3,52.5,18.5
		l55.8,35.1l5.4-6.9l-58.2-35.6c0,0-1.4-1-6-2.4c-4.2-1.2-5.9-7.1,12.8-2.9c0,0,24.4,16.1,34.4,21.8c9.8,5.6-0.1-9.9,10.2-4.3
		l20.5,12.6l-4.2,7.8l7.2,4.4c-4.4,7.1-16.9,21.2-0.8,31.1c4.3,2.6,11.1,3.1,17.6,5.2l42.6,24.3l3.2-4.8c-11.2-5.2-21-13.6-32.2-19
		C603.9,626.4,606.2,620.8,610.9,623.1z M510.2,585.4c0,0-4.6,1.7-6.3,2.1c-2.6,0.6-6.2-2-8.9-3.2c-3,2.7-0.6,9.8-2.5,9
		c-4.8-2.1-4.7-9.2-4.7-11.9l-5.6-2.2l-1.6,9.7c0,0,15,8.6,21.6,9.3c4.2,0.4,10.5-5.5,14.5-9.9C515.7,588,510.2,585.4,510.2,585.4z
		 M623.2,520.9c-0.7-0.4-1.5-0.5-2.2-0.1c-1.6,0.9-3.4,1.2-4.8,1.4c-2.7,0.4-6-2.5-8.6-4c-3.2,2.5-1.4,9.7-3.2,8.7
		c-4.6-2.5-3.9-9.5-3.7-12.2l-3.3-1.6l-6.3,8.4c0,0,16.1,10,22.6,11.2c4.1,0.8,10.9-4.6,15.3-8.6C628.1,523.7,624.9,522,623.2,520.9
		z M613.4,516.5c1.2,0.9,3.6,1.7,5.9-1c2.9-3.5-10.9-18.8-14.4-18.3c-2.4,0.4-7,8-4.1,8.9C605.8,507.6,610.2,514,613.4,516.5z
		 M626.3,460.5l3.7,1.4c7.5,2.9,26.2,14,26.2,14s-1.8,3.5-1.4,4.2c0.1,0.2,2.1,1.5,5,3.3l20.3,12.1l3.4,0.2l36.7,22.7
		c4.6-2.1,8-7.6,8.8-12.7l-40.7-26.3l2.4-4.1c0.5-0.8,0.2-1.8-0.5-2.2l-6.7-4.3c-0.8-0.5-1.8-0.3-2.3,0.5l-2.4,4l-11.4-7.3
		c0,0-2,0.6-3.4,1.7l-1.3,1c0,0-12.8-7.3-26-20.6l-0.6-0.7l-34.2-21.7c0,0-3-0.8-6.9,5c-3.2,4.8-1.8,8.6-1.8,8.6
		C593.6,439.6,626.3,460.5,626.3,460.5z M637.5,563.5c0.5-1.5,5-16,12.6-25.5l-15.1-5.3c0,0-5.7,1.6-9.5,4.2
		c-1.2,0.8,4,12.5-13.1,18.1c-7,2.3,1.2,7.3,7.1,7.1c14.5,0.4,14.2,11.9,31.7,13.9c5.9,0.7,9.6,0.4,16.3-0.3
		C660.8,573,646,567.3,637.5,563.5z M490.5,632c0.2,7.5,6.8,5.7,9.8,4.5c2-0.9-2.6-4.2,2.5-6c4.5-1.6-5.4-16.9-9.1-13.9
		C490.2,619.3,490.2,624.5,490.5,632z M502.2,645.7c-0.3-1.7,0-4.8-1.5-5.5c-2.2-1-8.4,2.6-8.4,2.6c-1.4,1.4-3.3,6.9-1.9,9.7
		c1.4,2.8,3,13,4.6,15.9c1.2,2.2,1.8,3.7,3.4,2.2C498.9,662.3,500.2,653.8,502.2,645.7z M369.9,392.2l-0.8-13.9
		c-4.4,3.8-6.7,4.1-9.4,3.8c0.3,2.7,5.7,29.4,12,28.6c3.4,4.2,4.9,4.4,8.2,3.5C384.5,412.8,378.4,407.9,369.9,392.2z M427.7,424.5
		c-11.7-8.7-38.8-5-36.7-0.3c3.4,7.4,14.1-2.2,34.9,6.8C428.3,432,431.8,427.6,427.7,424.5z M447.3,555.6
		c-0.2,4.1,1.3,16.9,1.1,22.4c-0.2,5.9,7.3,4.1,8-1.8c0.6-5.4,1-17.1-0.9-20.5C452.8,555.6,450.1,555.5,447.3,555.6z M469.2,556.5
		c-2.4-0.2-4.8-0.4-7.2-0.5c-0.1,0.1-0.1,0.2-0.2,0.3c-1.1,2.8,0.8,13.5,0.6,19.4c-0.2,5.9,7.6,5.2,8.5,0.5
		c0.7-5.9,0.5-17.5-1.5-19.4C469.4,556.7,469.3,556.6,469.2,556.5z M569.2,481.3c-1.1,3,1.4,13-0.1,18.4c-1.5,5.7,5.6,5.9,7.3,0.3
		c1.8-6.3,0.2-13.8-0.4-16.2C573.8,483,571.5,482.1,569.2,481.3z M582.5,486.3c-1.6,2.4,0.6,9.3-1,15c-1.5,5.7,5.3,6.9,7.1,2.6
		c2-5.5,1.4-12.9,0.3-15.3C588.7,488.2,582.6,486.1,582.5,486.3z M834.9,601.4L748.7,546c1-1.5-5-5.1-5-5.1c0,0-4.2-2.7-4.4-2.8
		c-0.9,0.2-1.3,0.2-2.3,0.5l-12.8-7.2l-1.6,2l-10.6-6.7c-1.7,5.9-3.1,8.5-7.6,6.7c-1.8-1.3-3-3.3-3.3-5.6c0,0-0.1-1.3-0.2-2.9
		c-0.2-3-1.8-5.8-4.4-7.3l-22.1-13.3l0,0l-20.6-12.6c0,0-2.2-0.7-5.1-2.6l-0.1,0L608,465c0,0-6.2-1.7-8.6-0.7
		c-2.4,1-4.7,3.6-4.7,3.6L578,457.2l2.2-4.4l-0.6-3.8c-0.3-1.9-1.3-3.5-2.9-4.5l-34.5-22.2c-2.8-1.8-6.4-1.2-8.5,1.3l-3,2.6
		c-1.4-2.7-4.3-8.3-5.1-10.5c-0.6-1.6-4-4.4-7-6.6c-2.6-1.9-6.2-1.2-7.8,1.5c-7.6,12.4-23.3,30.9-30.5,39.2c-2.1,2.4-1.6,6.1,1,8
		c3.7,2.7,7.2,4.7,10.7,6.3c6.5,2.9,10,6.6,13.7,0.5c0.4-0.7-4.7-2.2-4.3-6.4c0.5-6.3,9.7-15.1,11.7-17.3c3.6-4,13.6,1.3,18.2,4.2
		c9,5.6,25.4,12.7,37,20.6c4.7,3.2,1.9,7.8,1.9,7.8l8.1,2.7c11.2,2.1,25.9,11.4,63.7,40.6c7.6,4.3,10.1,5.8,16.2,9.3
		c1.4,0.8,8.2-6.1,9.4-5.3c36.8,21.2,50.5,27.8,53.4,29l7.4-9.6l4,1.4l-6.7,10.4c-2,3.1-0.7,7.4,2.7,8.8c6.7,2.8,8.2,1.3,14.5,5.4
		c1.8,1.1,82.9,53.3,82.9,53.3s4.7-6.2,11.5-16.8C835.9,601.1,836.3,601.1,834.9,601.4z"/>
	<path d="M627,707.6h16.3c0.8,0,1.4,0.6,1.4,1.4v84.2c0,0.8-0.6,1.4-1.4,1.4H627c-0.8,0-1.4-0.6-1.4-1.4v-33.7
		c0-0.8-0.6-1.4-1.4-1.4h-21.7c-0.8,0-1.4,0.6-1.4,1.4v33.7c0,0.8-0.6,1.4-1.4,1.4h-16.3c-0.8,0-1.4-0.6-1.4-1.4V709
		c0-0.8,0.6-1.4,1.4-1.4h16.3c0.8,0,1.4,0.6,1.4,1.4v31c0,0.8,0.6,1.4,1.4,1.4h21.7c0.8,0,1.4-0.6,1.4-1.4v-31
		C625.6,708.2,626.3,707.6,627,707.6z M412.5,722.9V709c0-0.8-0.6-1.4-1.4-1.4h-34.6h-17.7c-0.8,0-1.4,0.6-1.4,1.4v15.3v16.8v16.7
		v20.1v15.3c0,0.8,0.6,1.4,1.4,1.4h17.7h36c0.8,0,1.4-0.6,1.4-1.4v-13.9c0-0.8-0.6-1.4-1.4-1.4h-34.6c-0.8,0-1.4-0.6-1.4-1.4v-17.4
		c0-0.8,0.6-1.4,1.4-1.4h29.8c0.8,0,1.4-0.6,1.4-1.4v-13.6c0-0.8-0.6-1.4-1.4-1.4h-29.8c-0.8,0-1.4-0.6-1.4-1.4v-14.4
		c0-0.8,0.6-1.4,1.4-1.4h33.3C411.9,724.3,412.5,723.7,412.5,722.9z M721.4,723.8v54.6c0,9.2-7.5,16.7-16.7,16.7h-29.1
		c-9.2,0-16.7-7.5-16.7-16.7v-54.6c0-9.2,7.5-16.7,16.7-16.7h29.1C713.9,707,721.4,714.5,721.4,723.8z M677.9,725.1V777
		c0,0.8,0.6,1.4,1.4,1.4h21.6c0.8,0,1.4-0.6,1.4-1.4v-51.9c0-0.8-0.6-1.4-1.4-1.4h-21.6C678.5,723.7,677.9,724.3,677.9,725.1z
		 M206.4,723.8c0,10.7,0,27.8,0,54.6c0,9.2,7.5,16.7,16.7,16.7h27.4c9.2,0,16.7-7.5,16.7-16.7v-27.5c0-0.8-0.6-1.4-1.4-1.4
		c-29.2,0-5.7,0-27.6,0c-0.8,0-1.4,0.6-1.4,1.4c0,2.8,0,9.2,0,12c0,0.8,0.6,1.4,1.4,1.4h8.7c0.8,0,1.4,0.6,1.4,1.4l-0.1,11.3
		c0,0.8-0.6,1.4-1.4,1.4h-20c-0.8,0-1.4-0.6-1.4-1.4v-51.9c0-0.8,0.6-1.4,1.4-1.4h20.3c0.8,0,1.4,0.6,1.4,1.4l0,8.2
		c0,0.8,0.6,1.4,1.4,1.4h15.9c0.8,0,1.4-0.6,1.4-1.4v-9.5c0-9.2-7.5-16.7-16.7-16.7h-27.4C213.9,707,206.4,714.5,206.4,723.8z
		 M557.6,746.5c-6.1-1.6-15.7-4.1-31-8.1c-0.6-0.2-1-0.7-1-1.4v-12.7c0-0.8,0.6-1.4,1.4-1.4h19.9c0.8,0,1.4,0.6,1.4,1.4v8.2
		c0,0.8,0.6,1.4,1.4,1.4h16.3c0.8,0,1.4-0.6,1.4-1.4v-8.8c0-9.2-7.5-16.7-16.7-16.7l-27.1,0c-9.4,0-16.9,7.7-16.7,17
		c0.1,5.6,0.2,11.7,0.3,16.7c0.1,6.1,4.2,11.5,10.1,13.2c11.5,3.3,9,2.5,30.7,8.1c0.6,0.2,1.1,0.7,1.1,1.4v14.4
		c0,0.8-0.6,1.4-1.4,1.4h-21.5c-0.8,0-1.4-0.6-1.4-1.4v-7.7c0-0.8-0.6-1.4-1.4-1.4H507c-0.8,0-1.4,0.6-1.4,1.4c0,5.8,0,7.4,0,8
		c-0.1,9.3,7.4,17,16.7,17l29.1,0c9.2,0,16.7-7.5,16.7-16.7c0-4.5,0-10.3,0-18.4C568.1,753.6,563.8,748.1,557.6,746.5z M779.9,763.5
		h-24.2c-0.8,0-1.4,0.6-1.4,1.4v28.3c0,0.8-0.6,1.4-1.4,1.4h-16.3c-0.8,0-1.4-0.6-1.4-1.4v-31.6v-16v-22.1V709
		c0-0.8,0.6-1.4,1.4-1.4h43.3c9.2,0,16.7,7.5,16.7,16.7v22.5C796.7,756,789.2,763.5,779.9,763.5z M777.6,745.9v-20.4
		c0-0.8-0.6-1.4-1.4-1.4h-20.4c-0.8,0-1.4,0.6-1.4,1.4v20.4c0,0.8,0.6,1.4,1.4,1.4h20.4C776.9,747.3,777.6,746.6,777.6,745.9z
		 M483.5,707.5h-15.6c-0.8,0-1.4,0.6-1.4,1.4v14c0,2.6-0.7,5.1-2.1,7.3l-10.5,17L443,729.5c-1.3-2.2-2-4.7-2-7.3v-13.3
		c0-0.8-0.6-1.4-1.4-1.4h-16.3c-0.8,0-1.4,0.6-1.4,1.4v17.4c0,1.3,0.4,2.6,1,3.7l20.8,33.7l0.5,0.8v28.7c0,0.8,0.6,1.4,1.4,1.4h16.3
		c0.8,0,1.4-0.6,1.4-1.4V764l0.4-0.7l20.2-33.3c0.7-1.1,1-2.3,1-3.6v-17.4C484.9,708.2,484.3,707.5,483.5,707.5z M332.7,761.6
		c0,0.6,9.9,31.1,9.9,31.2c0.3,0.9-0.4,1.8-1.3,1.8H325c-0.6,0-1.1-0.4-1.3-1l-9.8-31c-0.2-0.6-0.7-1-1.3-1h-10
		c-0.8,0-1.4,0.6-1.4,1.4v30.2c0,0.8-0.6,1.4-1.4,1.4h-16.3c-0.8,0-1.4-0.6-1.4-1.4v-31.6v-16v-22.1V709c0-0.8,0.6-1.4,1.4-1.4h44.7
		c8.5,0,15.3,6.9,15.3,15.3v20.6C343.4,760.5,332.7,758.6,332.7,761.6z M324.3,744.3V725c0-0.8-0.6-1.4-1.4-1.4h-20.4
		c-0.8,0-1.4,0.6-1.4,1.4v19.3c0,0.8,0.6,1.4,1.4,1.4h20.4C323.7,745.7,324.3,745,324.3,744.3z"/>
</g>
</svg>
