<?xml version="1.0" encoding="utf-8"?>
<!-- Generator: Adobe Illustrator 22.0.1, SVG Export Plug-In . SVG Version: 6.00 Build 0)  -->
<svg version="1.1" id="Layer_3" xmlns="http://www.w3.org/2000/svg" xmlns:xlink="http://www.w3.org/1999/xlink" x="0px" y="0px"
	 viewBox="0 0 1000 1000" style="enable-background:new 0 0 1000 1000;" xml:space="preserve">
<style type="text/css">
	.st0{fill:url(#SVGID_1_);}
	.st1{fill:url(#SVGID_2_);}
	.st2{fill:url(#SVGID_3_);}
	.st3{fill:url(#SVGID_4_);}
	.st4{fill:url(#SVGID_5_);}
	.st5{fill:url(#SVGID_6_);}
	.st6{fill:url(#SVGID_7_);}
	.st7{fill:url(#SVGID_8_);}
	.st8{fill:url(#SVGID_9_);}
	.st9{fill:url(#SVGID_10_);}
	.st10{fill:none;}
	.st11{fill:#FFFFFF;}
</style>
<g>
	<g>
		<g>
			<linearGradient id="SVGID_1_" gradientUnits="userSpaceOnUse" x1="579.1301" y1="330.6029" x2="693.2189" y2="451.3248">
				<stop  offset="0" style="stop-color:#E6E6E6"/>
				<stop  offset="1" style="stop-color:#808080"/>
			</linearGradient>
			<polygon class="st0" points="526.7,33 523.1,513.4 646.7,343.4 			"/>
			<linearGradient id="SVGID_2_" gradientUnits="userSpaceOnUse" x1="926.3455" y1="382.8671" x2="488.5628" y2="441.2381">
				<stop  offset="0" style="stop-color:#E6E6E6"/>
				<stop  offset="1" style="stop-color:#808080"/>
			</linearGradient>
			<polygon class="st1" points="646.7,343.4 523.1,513.4 979,361.6 			"/>
		</g>
		<g>
			<linearGradient id="SVGID_3_" gradientUnits="userSpaceOnUse" x1="895.8281" y1="352.8316" x2="697.7204" y2="554.4769">
				<stop  offset="0" style="stop-color:#66AEFF"/>
				<stop  offset="1" style="stop-color:#0044FF"/>
			</linearGradient>
			<polygon class="st2" points="995.4,412.1 537.3,557.2 739.4,622.8 			"/>
			<linearGradient id="SVGID_4_" gradientUnits="userSpaceOnUse" x1="694.8204" y1="689.6309" x2="891.1593" y2="1036.3195">
				<stop  offset="0" style="stop-color:#66AEFF"/>
				<stop  offset="1" style="stop-color:#0044FF"/>
			</linearGradient>
			<polygon class="st3" points="537.3,557.2 822.6,943.8 739.4,622.8 			"/>
		</g>
		<g>
			<linearGradient id="SVGID_5_" gradientUnits="userSpaceOnUse" x1="457.2701" y1="735.7329" x2="266.2376" y2="1032.8944">
				<stop  offset="0" style="stop-color:#FF6666"/>
				<stop  offset="1" style="stop-color:#B80000"/>
			</linearGradient>
			<polygon class="st4" points="220.6,975 500.1,798 500.1,584.2 			"/>
			<linearGradient id="SVGID_6_" gradientUnits="userSpaceOnUse" x1="518.2275" y1="518.5508" x2="592.5179" y2="743.1907">
				<stop  offset="0" style="stop-color:#FF6666"/>
				<stop  offset="1" style="stop-color:#B80000"/>
			</linearGradient>
			<polygon class="st5" points="500.1,584.2 500.1,798 779.7,975 			"/>
		</g>
		<g>
			<linearGradient id="SVGID_7_" gradientUnits="userSpaceOnUse" x1="120.4744" y1="375.3342" x2="265.5175" y2="515.0709">
				<stop  offset="0" style="stop-color:#66AEFF"/>
				<stop  offset="1" style="stop-color:#0044FF"/>
			</linearGradient>
			<polygon class="st6" points="4.9,412.1 260.9,622.8 462.9,557.2 			"/>
			<linearGradient id="SVGID_8_" gradientUnits="userSpaceOnUse" x1="373.3215" y1="563.9681" x2="170.3496" y2="1025.6299">
				<stop  offset="0" style="stop-color:#66AEFF"/>
				<stop  offset="1" style="stop-color:#0044FF"/>
			</linearGradient>
			<polygon class="st7" points="462.9,557.2 260.9,622.8 177.7,943.8 			"/>
		</g>
		<g>
			<linearGradient id="SVGID_9_" gradientUnits="userSpaceOnUse" x1="489.9233" y1="154.2494" x2="407.6733" y2="456.7175">
				<stop  offset="0" style="stop-color:#E6E6E6"/>
				<stop  offset="1" style="stop-color:#808080"/>
			</linearGradient>
			<polygon class="st8" points="473.6,33 353.6,343.4 477.2,513.4 			"/>
			<linearGradient id="SVGID_10_" gradientUnits="userSpaceOnUse" x1="269.2766" y1="436.367" x2="612.8697" y2="416.4678">
				<stop  offset="0" style="stop-color:#E6E6E6"/>
				<stop  offset="1" style="stop-color:#808080"/>
			</linearGradient>
			<polygon class="st9" points="353.6,343.4 21.3,361.6 477.2,513.4 			"/>
		</g>
	</g>
	<g>
		<path d="M557.5,564.5c-16.3-41-100.2-109.7-130.8-121.7c1-1.4,7.1-9.9,8.5-12.7c0,0,10.5-26.6,11.3-30.9
			c0.8-4.3,10.9-0.8,14.4-5.9c3.5-5.1,9.9-12.1,8-21.4c-1.9-9.4-7.4-15-7.4-15s1-15.9-8.2-36.1c-15.4-33.5-66.7-36.6-92.3-13.1
			c-17.1,15.7-11.7,23.5-19.7,36.2c-1.4,1.4-7.8,5.4-8.6,7.6c-0.7,2.1-3.2,16.7-4.6,25.4c-0.7,4.1,1,8.3,4.4,10.7
			c2.3,1.7,5,3.3,6.8,3.8c1.8,0.5,4.4,0.5,6.8,0.4c3.2-0.1,6,2.1,6.6,5.3c0.7,3.8,2.1,8.4,4.3,10.1c-0.3,11.2-5.9,21.5-5.9,21.5
			c-2.8,7.9-2.8,11.7-2.8,11.7c-3.1,1.4-7.7-4.3-10.8-2.8c-16,7.7-33,17.4-33,17.4c0,0-18.8,12.1-26,18.6
			c-21.1,19.3-24.1,52.7-25.7,58.7c-0.5,2-4.5,8.6-5.3,11c0.2,0.9,2,10.4,1.9,18.6c0,4.9-2.3,10.2-1.9,13.7
			c0.5,4.6,4.8,10.3,5.3,13.2c3.8,22.6,7.6,34.8,25.3,54.1c6.1,1,12.5,0.8,17.7,0.5c4.1-0.2,7.8,2.5,8.9,6.5c1.8,6.7,2.2,8.9,4,12.4
			c8.1,15.7,4,23.9-1.3,48c33.6,30.8,77.8,71.7,185.9,71.7l-7.9-71c0,0-0.8-12.9-1.7-28.5c-1.1-19,16.8,4.6,27.8-83.1
			c2.6-10.3,26.7-7.1,50.7-2.8c0,0,0,0,0,0c17.3,11.4,35.3,22.6,54.3,31.2C631.7,634.6,557.5,564.5,557.5,564.5z"/>
	</g>
	<g>
		<polygon class="st10" points="680.3,663 654.1,647.4 652.1,650 678.4,666.5 		"/>
		<g>
			<g>
				<g>
					<path d="M767.1,716.8l-31.8-18.9l-2.7,0.2l-5-2.9l9.6-16.7l-8.1-4.7L716,689.3l-24.5-14.6c0,0-2-1.2-2.6-1.6
						c-0.2-0.1-0.3-0.3-0.5-0.4c-1.7-2.1,0.3-8,0.3-8s3.3-3.9,2.5-7.1l-1.8-1.1l-29.6-17.4l-2.6-1.6l1.6-5.5l-2.8-1.7
						c0,0,0-0.1,0.7-1.1l-21.4,32l4.1,2.4l0,0l3-3l68,38.6l0.8-1.4l16.2,9.3l1.2,2.4l32,18.9c0,0,1.8,0.7,4.9-4.8
						C766.3,722.2,768.5,717.5,767.1,716.8z"/>
				</g>
			</g>
		</g>
	</g>
	<g>
		<polygon class="st11" points="717.3,567.6 717.3,567.6 717.3,567.6 		"/>
	</g>
	<path d="M970.9,707.4L948,692.6l-2.1-0.4l-4.2-2.7c0,0,9.9-13.8,8.4-14.7c0,0-0.4-0.2-0.6-0.4c-0.3-0.2-0.5-0.2-0.8-0.2
		c-0.6,0.1-1.8,0.2-2,0c-0.3-0.2-0.7-1.2-0.9-1.8c-0.1-0.3-0.3-0.5-0.5-0.7l-1.3-0.8c-0.6-0.4-3.2,1.7-2.7,3.7c-3.3,2.5-9,8.9-9,8.9
		l-59.7-38.5c0,0,0.4-1.1-0.4-1.6c-6.6-4.8-3.6-9.6-3.6-9.6c-0.3-0.6-1-2-1.6-2.4L850,620.3l-3.2-0.8l-7.5-4.8l0.3-3.5l-1.7-1.7
		c-6.8,10.6-11.5,16.9-11.5,16.9s-81.6-52.4-83.4-53.6c-6.3-4.1-7.8-2.6-14.6-5.4c-3.5-1.4-4.7-5.7-2.7-8.8l6.7-10.4l-4-1.4
		l-7.2,9.4c-2-6.9-6.4-15-9.4-22.7c1.2-3,1-6.6-0.7-10.2c-17.3-34.6-49.4-72.5-52.9-81.6c-1.8-4.6-19.6-15.6-19.6-15.6
		s-1.1-3.9-1.7-5.2c-0.5-1.1-11.8-11.5-15.9-14.7c4.1-2.7,8.1-5.3,8.6-5.7c16.9-13.2,20.8-8.8,24.9-16.9c3.6-7.1,13.6-23,13.4-28.9
		c-0.2-5.9-3.7-10.7-5.5-12.8c-1.8-2.1-6.4-15.2-8.4-26.4c-1-5.7-5.7-15-9.6-21.1c0,0-20.6-31.4-61.5-29.8
		c-46.1,1.8-50.8,57.8-54,63.1c-3.2,5.4-3.9,22.5-3.9,24.3c0,1.8-9.6,12.5-11.1,17.5c-1.1,4,4.4,13.2,4.2,13.6c0,0-44,24.4-44,24.4
		c-11,6.1-16.2,11.8-34.5,42.3l0,0c0.2,0.2,0.5,0.3,0.7,0.5c1,0.7,2,1.5,3.1,2.3c5.6,41.1,11.3,82.3,20.4,122.8
		c7.2,32.3,22.2,137.5,22.2,137.5l7.9,69.4c30.4-1,96.8,1.8,163.1-51.6c2.5-2,4-65.7,2.8-101.4c-0.6-17.8-1.2-26.6-1.2-26.6
		c14.2,0,29.3-10.8,35.7-17.1c2.7-2.7,4.5-6.4,5.6-10.7c0.4-1.5,15,0.9,20.5-5.4c0,0,23,11.3,25.7,13c0,0,69.7,44.6,70.9,45.4
		c1.2,0.8,1.9,0.8,2.7,0.4c2.3,1.5,7.9,4.4,9.8,1.5l4.8,3.1l1.6-2.5l92.2,59.3l-1.8,2.8l4.8,3.1l3.5-1.6l7.6,5l1.3,1.7l23,14.7
		C968.3,714.9,971.4,709.7,970.9,707.4z"/>
	<path d="M818.2,695.9h-59.7c34.9-51,53.8-111.2,54-174.4c0.3-81.5-31.6-160.5-88.6-218.8c-60.6-62.1-142.5-95.7-229.3-94.1
		c-76.7,1.4-150.7,31.4-206.7,83.8c-63.8,59.7-99.1,141.1-99.1,228c0,63.5,18.9,124.2,54,175.5H181v126.8h637.2V695.9z M205.9,520.4
		c0-162.5,132.2-294.7,294.7-294.7c162.5,0,294.7,132.2,294.7,294.7c0,65.7-21.6,126.4-58.1,175.5H264
		C227.6,646.8,205.9,586.1,205.9,520.4z"/>
	<path class="st11" d="M548,419.5c0,0-6.6-5.4-13.5-5.6c-2.3-0.1-4.4-1.1-5.7-3c-5.6-7.8-14.5-16.1-14.5-16.1l11-5.3
		C533,396,535.9,395.1,548,419.5z M630.5,293.2c-3.2-15.9-63.5-30.8-74.2-9.8c-3.6,7.1,13.1-4.3,11.2,4.2
		c-1.8,7.8-22.8,9.1-22.4,22.8c0.5,18-5.4,21.1,1.1,24.2c3.7,1.8,4-11.8,8.4-16.9c8.8-10.2,43.6-6.1,53.7-14.7
		C614.6,297.6,631.5,298.6,630.5,293.2z M535.3,535c6.4,4.6,27.3-12.8,19.3-24.7c-2.5-3.7-5.6,13.7-10.2,13
		c-7.2-1.1,11.2-22.2,8-30.9c-1.5-4.1-14.3,2-14.1-0.8c0.2-2.5,9.6-3.1,3.5-9.3c-3.1-3.2-12.7,11-12.2,13.7
		C532.4,511.2,510.1,516.6,535.3,535z M474.8,418.2c-4.4,6-2.1,18.2-5.7,19.4c-6,2.1-5.2-17.8-23.1,17.4c0,0,8,9.2,14.3,10.2
		l16.3-30.4c0,0,17-11.9,23.1-21.1c6.1-9.1,2.7-7.2,0-9.4C499.8,404.5,479.2,412.3,474.8,418.2z M510.6,511.1
		c4.9-4.6,15.3-20.8,13.4-28.1c-0.6-2.6-7.1,2-10.8,1.5c-3.7-0.5-3.4-4.4-7.7-4.9c0,0-16.3,3-17.6,6.1
		C486.3,489.3,508.1,513.4,510.6,511.1z M353.8,552.2c8.1-10.8-50.4-32.3-52.8-35.1c0,0-10.5,19.5-13.7,23.1c-3.2,3.6-6,7.4-1.4,8.6
		c4.6,1.2,35.5,16.1,33.1,8C313.3,538.3,350.1,557.2,353.8,552.2z M346.7,522.2c-3.4-2.5-37-24.9-41.6-21.5
		c-2.8,2.1-5.1,10.2,13.1,16.4c29.7,10.1,30,20.5,37.3,21.1C360.3,538.5,350.9,525.3,346.7,522.2z M638.1,338.7
		c0.2,3.7,5.1,28.8-8.9,46.4c-2.4,3,7.6-25,5.7-40.5c-9.4-0.6-36.6-6.5-53.8-12.6c-3.7-1.3,9.1-8.1,19.5-10.3
		c1.4-0.3,5.5,0.6,5.5,0.6c9.4,5,11,7.1,14.1,3.9c0.9-0.9-3.7-2.7-3.7-2.7s-7.3-3.6-6.5-4.7c2.2-3.2,24.4-6.1,26-4
		c1.7,2.4,3.4,11.7,3.7,15.8c-0.8-0.6-2.3-1.2-3.2-1.5c-1.8-0.7-5.9,1.5-5.9,3c0,0.8,7.9,0.9,8.8,2.5
		C639.8,335.9,639.2,337.4,638.1,338.7z M615,330.5c-10.2-3.8-16-0.7-16.4-1.1c0,0,13.6,5.8,16.4,7.1
		C614.3,334.1,615,330.5,615,330.5z M635.6,337.3c-3-1.4-6.5,0-6.5,0s1.3,2.7,3.5,4.1C634.7,342.8,637.1,338,635.6,337.3z
		 M419.6,367.7c6,0,17.3-6.3,20.3-1.8c-3.2,0.4-5.6,0.7-8.4,0.7c-2,0-4.7,4.1-1.7,4.1c3.7,0,6.7-1.4,9.2-1.4c1.8,0,3.1,1.7,3.6,2.6
		c0,1.9-0.4,3.7-0.5,4.9c-0.4,3.3-3.1,8.3-7.6,8.3c-0.5,0-0.9-0.1-1.4-0.3c-3.5-1.7-7.1-7.6-10.2-7.6c-3.4,0-19,2.7-27.1,2.7
		c-8.1,0-13.7-9-13.7-11.9c0-2.9-1-9.5,13.3-9.5C409.6,358.5,417.7,367.7,419.6,367.7z M408,375.4c0-0.9-1-1.3-1-2.6
		c0-1.8-4.8-3.1-10.1-3.1c-4.5,0-5.2,3.5-5.2,3.9c1.6,0,4.5,2.5,8.3,2.5C401,376.1,408,376.2,408,375.4z M408,363.8
		c-2.5,0-10.8-3.6-14.5-3.6s-7.9,6-7.9,6l1.2,0.2c0,0,3.1-2.3,5.6-2.1c7.9,0.5,14.7,6.2,16.9,4C411.2,365.4,410,363.8,408,363.8z
		 M425.2,375.7c0.1,0.1,0.3,0.3,0.4,0.4c0,0,2.9,2,7.7,2.7c1.5,0.4,2-0.1,3.6-0.5c0,0-0.5-2.6-1-3.2c-0.5-0.5-4.5-2.7-6.8-2.7
		C426.7,372.4,425.2,375.7,425.2,375.7z M420.2,577.8c3,14,1.3,23,2.6,26.1c1.1,2.4,8.2,9.1,11.6,8c3.8-1.3,4.3-14.5,4.3-14.5
		c0.4-13.8-1.4-29.5-9-33.6c-9.5-2.6-19.2-3-19.1,3.8C410.7,569.9,419.8,576,420.2,577.8z M582.2,402.1
		c-9.8,19.5-12.6,24.1-14.8,20.9c-1.3-2-8.6-9.7-10.3-11.3c-2.7-2.7-5.4-7.1-4.4-8.1c2.8-2.8,10.3,5.6,13.8,6.7
		c10.1,3.3,7.7-5.8-2.2-17.2c-5.5-6.3-10.9-9.9-14.8-17.8c-2.6-5.2-3.3-11.1-2.3-16.8c13.7,25,23,28.3,34.3,39.2
		C582.6,398.9,582.9,400.6,582.2,402.1z M615,412.2c0,0-5.4,17.8-4.1,18.5c1.6,0.9,9.6-15.8,9.6-15.8
		C621.5,412.9,615.8,408.6,615,412.2z M403.6,644.9c-9.6-5.5-42.6-7.3-71.6-1.5c-3.3,0.7-5.3,3.9-3.9,6.9c0.6,1.2,1.1,2.3,1.6,3.5
		c0.9,1.9,8.2,0.6,10.3,0.2c17.5-3.7,44.6-4,61.9-3.2C405.4,651,406.6,646.6,403.6,644.9z M407.8,662.8c-0.2-1.7-1.5-3.1-3.2-3.4
		c-13.7-2.7-40.4,0.4-62.9,3.2c-2.5,0.3-3.4,3.5-1.4,5c4.4,3.3,6,4.7,8.7,4.4c15.7-1.5,36.8-2.9,53.7-2.3
		C406.1,669.7,408.2,665.3,407.8,662.8z M428.9,629c0-3.9-2.8-6.4-4.4-6.6c-6.2-0.7-14.5-3.1-14.5,3c0,6.2,11.6,17.4,18.7,17.4
		C431,642.9,428.9,637.1,428.9,629z M416.9,650c-5.8,0-2.8,16.7-0.8,18.2c6.3,4.8,19.3,3.1,19.3,1.6
		C435.5,664.8,425.7,650,416.9,650z M477.8,654c-5.1,0-11.8,1.9-11.9,3.1c-0.2,2.5-5.1,3.2-7.2,1.7c-0.7-0.5-1.5-0.7-2.3-0.7
		c-3,0.1-6.6,0-11.1-0.4c-6.1-0.4,3.9,17.2,5.8,20.6c3.6,6.4,16.8,6.5,21.7,1.4c3.3-3.4,3.7-7.1,4.7-13.6
		C478.4,660.4,481.4,654,477.8,654z M473.2,625.2c-5.8,0-10.4,4.9-13.9,5.4c-10.7,1.3-21.2-11.2-19.7,6.9c0.4,4.2,3.6,11.5,6.4,13.3
		c2.8,1.8,6.1,2.5,10.3,2.4c0,0-1-5.3-0.5-7.2c0.6-2.6,8.6-1.9,10.2,0.1c0.9,1.1,0.3,5.5,0.3,5.5c1.1-0.3,2.2-0.5,3.4-0.9
		C481,647.7,481.9,625.2,473.2,625.2z M524.2,537.3c10.8-0.2-88.9-82.8-93.2-83.6c-4.5-0.8-6.2,13.3,0.2,16.8
		c33.2,18.1,38.3,17.9,67.9,53L524.2,537.3z M359.1,460.8c-8.3-18.5-7.5-32.8-7.5-32.8c-1.8,3.9-4.6,4.6-6.7,8c-4.8-0.8-7.7,2-7.7,2
		c-0.5,14.7,9.6,25.2,13.2,34.4C353.1,479.1,361.8,466.7,359.1,460.8z M529.1,635.1c-4.1-6-4.3-4.9-6.5,1.4
		c-5.8,17-10.1,35.3-11,53.7c0,0-0.5,0.4,13.4,1.1c1-11.4,2.1-22.2,5.2-33.8l0,0C522.9,651,525.5,643.6,529.1,635.1z M561.9,626.7
		c-0.7-5.2-5-12.6-8.3-14.1c-1.2-0.6-4,1.7-3.7,5c-0.4-0.7-0.8-1.3-1.2-1.8c-1.8-2.3-3.6-5-5-7c-1.4-2.1-4.2-3-6.5-1.8
		c-3.2,1.7-2.3,6.9-0.9,10.3c-2.7,2.1-5.2,4.5-3,11.4l3.5,10.8c0,0-5-0.4-5,5.7c0,0.7,0.5,1.9,1.1,3.2c0,0,0.1,0.1,0.1,0.1
		c0.6,1.5,1.5,2.8,2.4,4.1c0.6,0.1,2.1,0.4,3.8,0.6c2.9,0.4,4.5-1.6,4.9-4c0-3.2,3.7,0.3,6.6-2.4c3.7-3.3-1.4-7.9,1.6-7.9
		c4.5-0.1,4.3-6.5,4.3-6.5S562.7,632.7,561.9,626.7z M483.9,568.8c-1.6-0.4-3.1,0.8-3.1,2.4c-0.1,3.6-0.4,7.3,1.7,8.4
		c14,7.5,23.2,8.2,23.8,3.9C507.3,577.5,489.7,570.1,483.9,568.8z M426.3,516.2c1.4-2.6,0.6-5.8-1.9-7.3l-55.8-34
		c-1.6-1.1-3.8-0.1-4.1,1.8c-1.6,8.6-7.4,18.3-13.2,25.7c-4,5-4.1,12.4,1.9,14.7c13.8,5.4,39.4,11.5,58.1,16c2.1,0.5,4.3-0.3,5.6-2
		C420.6,526,423.2,521.7,426.3,516.2z M651.5,651.2l26.9,15.8l1.8-4.1l-26.1-15.6L651.5,651.2z M702.8,555.8
		c-3.5-1.3-6.5,0.1-5.2,3.9c1.2,3.8,4.1,7.9,9.2,8.9c2.5,0.5,6.7-1.5,6.6-2.9C713.1,561.8,702.8,555.8,702.8,555.8z M688.8,546.4
		c-0.8-3.1-5.7-8.7-8.3-8c-3.1,0.9-3.9,2.9-2.3,8c-2.5,0.9-3.6,1.1-4.2,4.1c-0.4,1.9,1.7,7.6,1.7,7.6c-1.6,0.8-2,1.7-2.1,2.9
		c-0.6,5.4,2.7,9.9,6.5,11.5c5.7,2.3,2.5-3.8,8.2-2.4c1.2,0.3,3.3-1.1,3.2-2.6c-0.2-2.9,1.6-1.2,3.8-2.8
		C697.1,563.4,694.8,551,688.8,546.4z M402.3,564.1c-13.2,0-22.5,1.6-31.6,5.6c-7,3-20,29.2-24.9,28.8c-4.2-0.3,11.5-19,6.9-21.2
		c-3.3-1.6-32.5,22.7-33.1,19.7c-1.7-7.5,25.7-21.6,16.7-20.5c-8.6,2.3-9,1.1-23,5.1l0,0c-22.1,6.9-21.8,12.4-29.8,13.1
		c-8.5,0.7,4.1-7.3,8.2-11.9c0.5-1.2,1-2.6,1.4-4.3c6.1-21.7-26.8-16.1-12.7-45.5c2.8-5.7,4-7.5,12.2-17.1c6.2-7.3,5.4-23,9.2-23.8
		c8.4-1.8,25.5,9.9,35.6,11.8c9.9,1.9-11.1-50.9-21.1-43.3c-6.1,4.7,5.8,22.2,3.4,24.4c-7.7,7.1-10.3-33.2-35-2
		c-24.8,31.4-16,34-26,61.4c-1.8,4.8-1.3,6.9-0.2,9.6c4.3,4.5,16.3,17.5,16.3,22.3c0,5.8-0.7,10.4-3.8,4.7c-1.6-3-5.9-11.1-9.9-11.4
		c-8.4-0.6,2.9,42.7,20.3,53.8c7.5,4.8,8.6-5,24.3,6.9c18.4,13.9,77.6-45,80.3-44.2c5.3,1.6-9.5,23.4-6.6,27.2
		c2.2,2.9,12.2,1.3,29.3-5.1c4.3-1.6,9.6-26.9,4.2-27C400.4,580.9,408.8,564.1,402.3,564.1z M610.2,630.2
		c11.4,5.4,21.2,14.5,32.8,19.4l13.5-20.3l-47.2-30.6c0,0-1.1-0.7-2.7-1.3c1.2-2-1.6-4.1-1.6-4.1l-26.3-16.1l-2.7,4.4
		c0,0-85.6-52.4-89.4-54.7c-6.7-4.1-20.2,2.8-24.6,5l-7.3-4.4c1.5-2.3,0.7-5.3-1.7-6.6l-12.3-6.3c-2.6-1.6-6-0.7-7.5,1.9
		c-2.2,3.8-4.9,11.7-7.5,15.3c-2.1,2.9-14.5,14.1-11.1,15.4c0,0,17,7.2,23,6.7c5.9-0.5,2.1-4.2,8.5-3.5c0.1,0,47.6,15.4,52.8,18.6
		l56.1,35.3l5.5-6.9l-58.5-35.8c0,0-1.4-1-6.1-2.4c-4.2-1.3-6-7.1,12.9-2.9c0,0,24.5,16.2,34.6,21.9c9.8,5.6-0.1-9.9,10.3-4.3
		l20.7,12.7l-4.2,7.8l7.3,4.5c-4.4,7.1-17,21.3-0.8,31.3c4.3,2.6,11.1,3.1,17.7,5.2l42.9,24.5l3.2-4.9
		c-11.3-5.3-21.1-13.7-32.4-19.1C603.1,633.5,605.5,627.9,610.2,630.2z M508.9,592.3c0,0-4.6,1.7-6.3,2.1c-2.6,0.6-6.2-2-9-3.2
		c-3,2.7-0.6,9.9-2.5,9c-4.9-2.1-4.7-9.2-4.8-11.9l-5.6-2.2l-1.6,9.8c0,0,15.1,8.7,21.7,9.4c4.2,0.4,10.6-5.5,14.6-9.9
		C514.4,594.9,508.9,592.3,508.9,592.3z M622.5,527.4c-0.7-0.4-1.5-0.5-2.2-0.1c-1.6,0.9-3.4,1.2-4.9,1.4c-2.7,0.4-6.1-2.5-8.7-4
		c-3.3,2.5-1.4,9.8-3.3,8.8c-4.7-2.5-4-9.6-3.8-12.3l-3.4-1.6L590,528c0,0,16.2,10.1,22.7,11.3c4.1,0.8,11-4.6,15.4-8.7
		C627.5,530.3,624.3,528.5,622.5,527.4z M612.7,523.1c1.2,0.9,3.6,1.8,5.9-1c3-3.5-10.9-19-14.5-18.4c-2.4,0.4-7,8.1-4.1,8.9
		C605,514.1,609.4,520.5,612.7,523.1z M625.6,466.7l3.7,1.4c7.5,2.9,26.3,14.1,26.3,14.1s-1.8,3.5-1.4,4.2c0.1,0.2,2.1,1.5,5,3.3
		l20.4,12.1l3.4,0.2l36.9,22.8c4.6-2.1,8-7.7,8.8-12.7l-40.9-26.5l2.4-4.1c0.5-0.8,0.2-1.8-0.5-2.2l-6.7-4.3
		c-0.8-0.5-1.8-0.3-2.3,0.5l-2.4,4l-11.5-7.4c0,0-2.1,0.6-3.4,1.7l-1.3,1.1c0,0-12.9-7.3-26.2-20.7l-0.6-0.7L601,431.7
		c0,0-3.1-0.8-7,5.1c-3.2,4.9-1.8,8.6-1.8,8.6C592.8,445.7,625.6,466.7,625.6,466.7z M636.9,570.3c0.5-1.5,5-16.1,12.7-25.6
		l-15.2-5.3c0,0-5.8,1.6-9.5,4.2c-1.2,0.8,4,12.5-13.1,18.2c-7.1,2.3,1.3,7.3,7.2,7.2c14.6,0.4,14.3,12,31.8,14
		c6,0.7,9.7,0.4,16.4-0.3C660.4,579.9,645.4,574.1,636.9,570.3z M489,639.2c0.2,7.5,6.9,5.8,9.9,4.5c2.1-0.9-2.6-4.2,2.5-6
		c4.5-1.6-5.4-17-9.2-14C488.8,626.5,488.8,631.7,489,639.2z M500.9,653c-0.3-1.7,0-4.8-1.6-5.5c-2.3-1-8.5,2.6-8.5,2.6
		c-1.4,1.4-3.3,6.9-1.9,9.7c1.4,2.8,3,13.1,4.6,16c1.2,2.2,1.8,3.7,3.5,2.3C497.6,669.6,498.8,661.1,500.9,653z M367.8,398l-0.8-14
		c-4.4,3.8-6.7,4.1-9.4,3.8c0.3,2.7,5.7,29.6,12.1,28.7c3.5,4.2,4.9,4.4,8.3,3.5C382.5,418.8,376.3,413.8,367.8,398z M425.9,430.6
		c-11.8-8.8-39-5-36.9-0.3c3.4,7.5,14.2-2.2,35.1,6.8C426.5,438.1,430.1,433.6,425.9,430.6z M445.7,562.3c-0.2,4.1,1.3,17,1.1,22.5
		c-0.2,6,7.4,4.2,8-1.8c0.6-5.5,1-17.2-0.9-20.6C451.2,562.3,448.4,562.3,445.7,562.3z M467.6,563.3c-2.4-0.2-4.8-0.4-7.3-0.5
		c-0.1,0.1-0.1,0.2-0.2,0.3c-1.1,2.8,0.8,13.5,0.6,19.5c-0.2,6,7.7,5.2,8.5,0.5c0.7-5.9,0.5-17.6-1.5-19.5
		C467.8,563.4,467.7,563.4,467.6,563.3z M568.2,487.6c-1.1,3,1.4,13.1-0.1,18.5c-1.5,5.7,5.7,6,7.3,0.3c1.8-6.3,0.2-13.9-0.4-16.3
		C572.8,489.3,570.5,488.5,568.2,487.6z M581.6,492.6c-1.6,2.4,0.6,9.4-1,15.1c-1.5,5.7,5.4,6.9,7.2,2.6c2-5.6,1.5-13,0.3-15.3
		C587.8,494.5,581.7,492.4,581.6,492.6z M835.4,608.4l-86.7-55.7c1-1.5-5-5.1-5-5.1c0,0-4.3-2.7-4.4-2.9c-0.9,0.2-1.3,0.2-2.3,0.5
		L724,538l-1.6,2l-10.7-6.7c-1.7,6-3.1,8.5-7.7,6.8c-1.8-1.3-3-3.4-3.3-5.6c0,0-0.1-1.4-0.2-2.9c-0.2-3-1.8-5.8-4.4-7.4l-22.3-13.4
		l0,0l-20.7-12.7c0,0-2.2-0.7-5.1-2.6l-0.1,0l-40.8-24.3c0,0-6.3-1.7-8.7-0.7c-2.4,1-4.7,3.7-4.7,3.7L577,463.4l2.2-4.5l-0.6-3.9
		c-0.3-1.9-1.3-3.5-2.9-4.5L541,428.2c-2.8-1.8-6.5-1.2-8.6,1.4l-3,2.6c-1.4-2.7-4.3-8.3-5.2-10.6c-0.6-1.6-4-4.4-7.1-6.6
		c-2.6-1.9-6.2-1.2-7.8,1.5c-7.6,12.5-23.4,31.1-30.6,39.4c-2.1,2.4-1.6,6.1,1,8c3.7,2.7,7.3,4.8,10.8,6.3c6.5,3,10.1,6.6,13.8,0.5
		c0.4-0.7-4.7-2.2-4.4-6.4c0.5-6.3,9.8-15.2,11.8-17.4c3.6-4.1,13.7,1.3,18.3,4.2c9,5.6,25.5,12.8,37.2,20.7
		c4.8,3.2,1.9,7.8,1.9,7.8l8.2,2.8c11.2,2.1,26,11.5,64.1,40.8c7.6,4.4,10.2,5.8,16.3,9.3c1.4,0.8,8.2-6.1,9.5-5.4
		c37,21.3,50.8,28,53.7,29.2l7.4-9.7l4,1.4l-6.7,10.4c-2,3.2-0.7,7.4,2.7,8.8c6.8,2.8,8.3,1.3,14.6,5.4c1.8,1.2,83.4,53.6,83.4,53.6
		s4.7-6.3,11.5-16.9C836.4,608.1,836.9,608.1,835.4,608.4z"/>
	<path class="st11" d="M626.4,715.2h16.4c0.8,0,1.4,0.6,1.4,1.4v84.7c0,0.8-0.6,1.4-1.4,1.4h-16.4c-0.8,0-1.4-0.6-1.4-1.4v-33.9
		c0-0.8-0.6-1.4-1.4-1.4h-21.8c-0.8,0-1.4,0.6-1.4,1.4v33.9c0,0.8-0.6,1.4-1.4,1.4h-16.4c-0.8,0-1.4-0.6-1.4-1.4v-84.7
		c0-0.8,0.6-1.4,1.4-1.4h16.4c0.8,0,1.4,0.6,1.4,1.4v31.2c0,0.8,0.6,1.4,1.4,1.4h21.8c0.8,0,1.4-0.6,1.4-1.4v-31.2
		C625,715.9,625.6,715.2,626.4,715.2z M410.6,730.6v-14c0-0.8-0.6-1.4-1.4-1.4h-34.8h-17.8c-0.8,0-1.4,0.6-1.4,1.4V732v16.9v16.8
		V786v15.4c0,0.8,0.6,1.4,1.4,1.4h17.8h36.2c0.8,0,1.4-0.6,1.4-1.4v-14c0-0.8-0.6-1.4-1.4-1.4h-34.8c-0.8,0-1.4-0.6-1.4-1.4v-17.5
		c0-0.8,0.6-1.4,1.4-1.4h30c0.8,0,1.4-0.6,1.4-1.4v-13.7c0-0.8-0.6-1.4-1.4-1.4h-30c-0.8,0-1.4-0.6-1.4-1.4v-14.4
		c0-0.8,0.6-1.4,1.4-1.4h33.4C410,732,410.6,731.4,410.6,730.6z M721.3,731.5v54.9c0,9.3-7.5,16.8-16.8,16.8h-29.3
		c-9.3,0-16.8-7.5-16.8-16.8v-54.9c0-9.3,7.5-16.8,16.8-16.8h29.3C713.8,714.6,721.3,722.2,721.3,731.5z M677.5,732.8V785
		c0,0.8,0.6,1.4,1.4,1.4h21.7c0.8,0,1.4-0.6,1.4-1.4v-52.2c0-0.8-0.6-1.4-1.4-1.4H679C678.2,731.4,677.5,732,677.5,732.8z
		 M203.3,731.5c0,10.8,0,27.9,0,54.9c0,9.3,7.6,16.8,16.8,16.8h27.6c9.3,0,16.8-7.5,16.8-16.8v-27.6c0-0.8-0.6-1.4-1.4-1.4
		c-29.4,0-5.7,0-27.8,0c-0.8,0-1.4,0.6-1.4,1.4c0,2.8,0,9.2,0,12.1c0,0.8,0.6,1.4,1.4,1.4h8.8c0.8,0,1.4,0.6,1.4,1.4l-0.1,11.4
		c0,0.8-0.6,1.4-1.4,1.4H224c-0.8,0-1.4-0.6-1.4-1.4v-52.2c0-0.8,0.6-1.4,1.4-1.4h20.4c0.8,0,1.4,0.6,1.4,1.4l0,8.2
		c0,0.8,0.6,1.4,1.4,1.4h16c0.8,0,1.4-0.6,1.4-1.4v-9.6c0-9.3-7.5-16.8-16.8-16.8h-27.6C210.9,714.6,203.3,722.2,203.3,731.5z
		 M556.5,754.3c-6.1-1.6-15.8-4.1-31.2-8.2c-0.6-0.2-1.1-0.7-1.1-1.4v-12.7c0-0.8,0.6-1.4,1.4-1.4h20c0.8,0,1.4,0.6,1.4,1.4v8.3
		c0,0.8,0.6,1.4,1.4,1.4h16.4c0.8,0,1.4-0.6,1.4-1.4v-8.8c0-9.3-7.5-16.8-16.8-16.8l-27.3,0c-9.4,0-17,7.7-16.8,17.1
		c0.1,5.7,0.2,11.8,0.3,16.8c0.1,6.2,4.3,11.5,10.2,13.2c11.6,3.3,9,2.6,30.9,8.1c0.6,0.2,1.1,0.7,1.1,1.4v14.5
		c0,0.8-0.6,1.4-1.4,1.4h-21.6c-0.8,0-1.4-0.6-1.4-1.4v-7.7c0-0.8-0.6-1.4-1.4-1.4h-16.4c-0.8,0-1.4,0.6-1.4,1.4c0,5.9,0,7.5,0,8
		c-0.1,9.4,7.4,17.1,16.8,17.1h29.2c9.3,0,16.8-7.5,16.8-16.8c0-4.5,0-10.4,0-18.5C567.1,761.5,562.7,755.9,556.5,754.3z
		 M780.1,771.5h-24.3c-0.8,0-1.4,0.6-1.4,1.4v28.4c0,0.8-0.6,1.4-1.4,1.4h-16.4c-0.8,0-1.4-0.6-1.4-1.4v-31.8v-16.1v-22.2v-14.7
		c0-0.8,0.6-1.4,1.4-1.4h43.5c9.3,0,16.8,7.5,16.8,16.8v22.6C797,763.9,789.4,771.5,780.1,771.5z M777.8,753.7v-20.5
		c0-0.8-0.6-1.4-1.4-1.4h-20.5c-0.8,0-1.4,0.6-1.4,1.4v20.5c0,0.8,0.6,1.4,1.4,1.4h20.5C777.1,755.1,777.8,754.5,777.8,753.7z
		 M482,715.2h-15.7c-0.8,0-1.4,0.6-1.4,1.4v14.1c0,2.6-0.7,5.2-2.1,7.4l-10.6,17.1l-10.9-17.9c-1.3-2.2-2.1-4.7-2.1-7.3v-13.4
		c0-0.8-0.6-1.4-1.4-1.4h-16.4c-0.8,0-1.4,0.6-1.4,1.4V734c0,1.3,0.4,2.6,1,3.7l20.9,33.9l0.5,0.8v28.8c0,0.8,0.6,1.4,1.4,1.4h16.4
		c0.8,0,1.4-0.6,1.4-1.4v-29.3l0.4-0.7l20.3-33.5c0.7-1.1,1-2.4,1-3.6v-17.5C483.4,715.8,482.8,715.2,482,715.2z M330.3,769.6
		c0,0.6,9.9,31.3,9.9,31.3c0.3,0.9-0.4,1.8-1.3,1.8h-16.3c-0.6,0-1.2-0.4-1.3-1l-9.9-31.2c-0.2-0.6-0.7-1-1.3-1H300
		c-0.8,0-1.4,0.6-1.4,1.4v30.4c0,0.8-0.6,1.4-1.4,1.4h-16.4c-0.8,0-1.4-0.6-1.4-1.4v-31.8v-16.1v-22.2v-14.7c0-0.8,0.6-1.4,1.4-1.4
		h44.9c8.5,0,15.4,6.9,15.4,15.4v20.7C341.1,768.5,330.3,766.5,330.3,769.6z M321.9,752.1v-19.4c0-0.8-0.6-1.4-1.4-1.4H300
		c-0.8,0-1.4,0.6-1.4,1.4v19.4c0,0.8,0.6,1.4,1.4,1.4h20.5C321.3,753.5,321.9,752.9,321.9,752.1z"/>
</g>
</svg>
