<?xml version="1.0" encoding="utf-8"?>
<!-- Generator: Adobe Illustrator 22.0.1, SVG Export Plug-In . SVG Version: 6.00 Build 0)  -->
<svg version="1.1" id="Layer_2" xmlns="http://www.w3.org/2000/svg" xmlns:xlink="http://www.w3.org/1999/xlink" x="0px" y="0px"
	 viewBox="0 0 150 37.5" style="enable-background:new 0 0 150 37.5;" xml:space="preserve">
<style type="text/css">
	.st0{fill:#FFFFFF;}
	.st1{fill:url(#SVGID_1_);}
	.st2{fill:url(#SVGID_2_);}
	.st3{fill:url(#SVGID_3_);}
	.st4{fill:url(#SVGID_4_);}
	.st5{fill:url(#SVGID_5_);}
	.st6{fill:url(#SVGID_6_);}
	.st7{fill:url(#SVGID_7_);}
	.st8{fill:url(#SVGID_8_);}
	.st9{fill:url(#SVGID_9_);}
	.st10{fill:url(#SVGID_10_);}
	.st11{fill:none;}
	.st12{fill:none;stroke:#FFFFFF;stroke-width:0.9;stroke-linecap:round;stroke-miterlimit:10;}
</style>
<path class="st0" d="M32.9,30.2h102.2c1.9,0,3.5-1.6,3.5-3.5v-15c0-1.9-1.6-3.5-3.5-3.5H31.3c0,3.1,4.7,1.9,4.8,10.6
	c0,2.5-0.4,4.9-1.6,7.1c-0.6,1.2-3.3,3.9-3.2,4.2C31.4,30.7,32,30.5,32.9,30.2z"/>
<g id="zvezda">
	<g>
		
			<linearGradient id="SVGID_1_" gradientUnits="userSpaceOnUse" x1="25.0886" y1="26.8067" x2="29.6264" y2="22.0051" gradientTransform="matrix(1 0 0 -1 0 38.8661)">
			<stop  offset="0" style="stop-color:#E6E6E6"/>
			<stop  offset="1" style="stop-color:#808080"/>
		</linearGradient>
		<polygon class="st1" points="23,0.2 22.9,19.3 28.1,12 		"/>
		
			<linearGradient id="SVGID_2_" gradientUnits="userSpaceOnUse" x1="39.8247" y1="25.7464" x2="21.4791" y2="23.3003" gradientTransform="matrix(1 0 0 -1 0 38.8661)">
			<stop  offset="0" style="stop-color:#E6E6E6"/>
			<stop  offset="1" style="stop-color:#808080"/>
		</linearGradient>
		<polygon class="st2" points="28.1,12 22.9,18 42.1,12.9 		"/>
	</g>
	<g>
		
			<linearGradient id="SVGID_3_" gradientUnits="userSpaceOnUse" x1="38.6255" y1="26.3111" x2="30.2445" y2="17.7804" gradientTransform="matrix(1 0 0 -1 0 38.8661)">
			<stop  offset="0" style="stop-color:#66AEFF"/>
			<stop  offset="1" style="stop-color:#0044FF"/>
		</linearGradient>
		<polygon class="st3" points="42.8,15.1 23.4,21.2 32,24 		"/>
		
			<linearGradient id="SVGID_4_" gradientUnits="userSpaceOnUse" x1="29.8264" y1="12.5665" x2="37.5437" y2="-1.0605" gradientTransform="matrix(1 0 0 -1 0 38.8661)">
			<stop  offset="0" style="stop-color:#66AEFF"/>
			<stop  offset="1" style="stop-color:#0044FF"/>
		</linearGradient>
		<polygon class="st4" points="23.4,21.2 35.5,36 32,24 		"/>
	</g>
	<g>
		
			<linearGradient id="SVGID_5_" gradientUnits="userSpaceOnUse" x1="19.9258" y1="10.7195" x2="12.3974" y2="-0.9914" gradientTransform="matrix(1 0 0 -1 0 38.8661)">
			<stop  offset="0" style="stop-color:#FF6666"/>
			<stop  offset="1" style="stop-color:#B80000"/>
		</linearGradient>
		<polygon class="st5" points="10,37.3 21.8,31.4 21.8,22.4 		"/>
		
			<linearGradient id="SVGID_6_" gradientUnits="userSpaceOnUse" x1="22.8866" y1="19.1748" x2="25.7761" y2="10.4375" gradientTransform="matrix(1 0 0 -1 0 38.8661)">
			<stop  offset="0" style="stop-color:#FF6666"/>
			<stop  offset="1" style="stop-color:#B80000"/>
		</linearGradient>
		<polygon class="st6" points="21.8,22.4 21.8,31.4 33.6,37.3 		"/>
	</g>
	<g>
		
			<linearGradient id="SVGID_7_" gradientUnits="userSpaceOnUse" x1="5.8348" y1="25.2518" x2="11.9705" y2="19.3405" gradientTransform="matrix(1 0 0 -1 0 38.8661)">
			<stop  offset="0" style="stop-color:#66AEFF"/>
			<stop  offset="1" style="stop-color:#0044FF"/>
		</linearGradient>
		<polygon class="st7" points="1,15.1 11.8,24.1 20.2,21.4 		"/>
		
			<linearGradient id="SVGID_8_" gradientUnits="userSpaceOnUse" x1="16.4021" y1="18.316" x2="8.3479" y2="-3.511083e-03" gradientTransform="matrix(0.9998 2.170741e-02 2.170741e-02 -0.9998 -0.5785 39.4771)">
			<stop  offset="0" style="stop-color:#66AEFF"/>
			<stop  offset="1" style="stop-color:#0044FF"/>
		</linearGradient>
		<polygon class="st8" points="19.9,21.4 11.2,24.4 7.3,36 		"/>
	</g>
	<g>
		
			<linearGradient id="SVGID_9_" gradientUnits="userSpaceOnUse" x1="21.2509" y1="33.8666" x2="17.9782" y2="21.8316" gradientTransform="matrix(1 0 0 -1 0 38.8661)">
			<stop  offset="0" style="stop-color:#E6E6E6"/>
			<stop  offset="1" style="stop-color:#808080"/>
		</linearGradient>
		<polygon class="st9" points="20.8,0.2 15.7,12 21,19.3 		"/>
		
			<linearGradient id="SVGID_10_" gradientUnits="userSpaceOnUse" x1="12.1247" y1="22.8181" x2="26.6443" y2="23.6589" gradientTransform="matrix(1 0 0 -1 0 38.8661)">
			<stop  offset="0" style="stop-color:#E6E6E6"/>
			<stop  offset="1" style="stop-color:#808080"/>
		</linearGradient>
		<polygon class="st10" points="15.7,12 1.6,12.9 21,19.3 		"/>
	</g>
</g>
<g>
	<path d="M37.7,25.7c0.1,0.1,0.2,0.2,0.3,0.3l0.9,0.4l0.3,0.7l2.8,1.7c0,0,0.3-0.3,0.4-0.4c0,0,0-0.1,0-0.1c0,0,0.1-0.1,0.1-0.1
		c0,0,0.1,0.1,0.1,0.1c-0.1,0.2-0.3,0.5-0.4,0.7l0.1,0.1h0.1l1,0.7c0,0.1-0.1,0.3-0.3,0.3l-1-0.7c0,0,0-0.1,0-0.1
		c-1.6-1-3.2-2-4.8-3.1c-0.1,0-0.2-0.1-0.3-0.1c-0.1,0-0.4,0.1-0.6,0c-0.2-0.1-0.2-0.1-0.3-0.2c-0.2-0.1-0.4-0.3-0.9-0.5
		c-0.1-0.3-0.6-0.6-1-0.7c-0.3-0.3-0.7-0.4-1-0.7c-0.1-0.1-1.2-0.6-1.2-0.6c-0.3,0.3-0.9,0.1-1,0.3c0,0.1-0.1,0.4-0.3,0.4
		c-0.3,0.3-1,0.7-1.6,0.7c0,0,0,0.4,0,1.3c0,0.1,0,0.3,0,0.4c0.4,0.3,0.9,0.6,1.3,0.7l0.1,0.1c0,0.1-0.1,0.3-0.1,0.3s-0.1,0.3,0,0.4
		l0.1,0.1c0.3,0.1,0.6,0.3,0.9,0.4c0.4,0.3,0.7,0.4,1.2,0.7c0,0,0.1,0,0.1,0.1h0.1l1.2,0.7c0,0,0,0.3-0.1,0.3
		c-0.1,0.3-0.3,0.3-0.3,0.3l-1.3-0.7v-0.1l0-0.3c0,0,0,0.1-0.1,0.1l-1.2-0.7c-0.1-0.1-0.4-0.3-0.6-0.3l-0.1-0.1l-1.2-0.7
		c0,1.2,0,2.5-0.1,2.8l-2.3,2.2c-1.3,0.4-3.6,1.2-6.5,0.9c-4.1-0.4-6.8-2.6-8-3.5c0.1-0.3,0.4-0.4,0.6-0.7c0.3-0.7,0.3-1.2,0.1-1.5
		c0-0.1,0-0.3-0.1-0.6c-0.1-0.1-0.1-0.3-0.1-0.6c0-0.1-0.3-0.3-0.4-0.3c-0.3,0-0.6,0-0.9,0c-0.9-0.9-1-1.5-1.2-2.5
		c0-0.1-0.3-0.4-0.3-0.6s0.1-0.4,0.1-0.6c0-0.4-0.1-0.9-0.1-0.9c0-0.1,0.3-0.4,0.3-0.6c0.1-0.3,0.1-1.9,1.2-2.8
		c0.3-0.3,1.2-0.9,1.2-0.9s0.7-0.4,1.6-0.9c0.1,0,0.3,0.1,0.4,0.1c0,0,0-0.1,0.1-0.6c0,0,0.3-0.4,0.3-1c-0.1-0.1-0.1-0.3-0.1-0.4
		c0-0.1-0.1-0.3-0.3-0.3s-0.3,0-0.3,0c-0.1,0-0.1-0.1-0.3-0.1c-0.1-0.1-0.3-0.3-0.1-0.4c0-0.4,0.1-1,0.1-1.2c0-0.1,0.3-0.3,0.4-0.3
		c0.4-0.6,0.1-1,0.9-1.7c1.2-1.2,3.6-1,4.4,0.6c0.4,0.9,0.4,1.7,0.4,1.7s0.3,0.3,0.3,0.7c0.1,0.4-0.1,0.7-0.4,1
		c-0.1,0.3-0.6,0.1-0.7,0.3c0,0.1-0.6,1.5-0.6,1.5c0,0.1-0.3,0.6-0.4,0.6c0.1,0,0.4,0.1,0.6,0.3c0.9-1.5,1-1.7,1.6-1.9l2-1.2
		c0,0-0.3-0.4-0.1-0.6c0-0.3,0.6-0.7,0.6-0.9s0-0.9,0.1-1.2c0.1-0.3,0.4-2.9,2.5-2.9c0.4,0,0.7,0,1,0.1c0.1,0,1,0.3,1.7,1
		c0.3,0.4,0.4,0.7,0.4,0.9c0,0,0,0,0.1,0.3c0.3,0.9,0.3,1,0.4,1.2c0.1,0.1,0.3,0.3,0.3,0.6c0,0.3-0.4,1-0.6,1.3
		c-0.1,0.4-0.4,0.1-1.2,0.7c0,0-0.1,0.1-0.4,0.3c0.1,0.1,0.7,0.6,0.7,0.7l0.1,0.3l0.9,0.7c0.3,0.3,0.7,0.7,1,1.6
		c0.1,0.4,0.1,0.9,0.3,1.3c0.4,0.1,0.6,0.3,0.6,0.4l0.4,0.3c0,0.1,0.1,0.1,0.1,0.3c0.1,0.1,0.1,0.3,0,0.4l0.4,0.3l0.1-0.1l0.6,0.3
		c0,0,0,0,0.1,0c0,0,0.2,0.1,0.2,0.1l4.4,2.8L37.7,25.7z"/>
	<path d="M37.6,25.4"/>
</g>
<path d="M107,12.8h2.5c0.1,0,0.1,0.1,0.1,0.1v12.7c0,0.1-0.1,0.1-0.1,0.1H107c-0.1,0-0.1-0.1-0.1-0.1v-5.1c0-0.1-0.1-0.1-0.1-0.1
	h-3.2c-0.1,0-0.1,0.1-0.1,0.1v5.1c0,0.1-0.1,0.1-0.1,0.1h-2.5c-0.1,0-0.1-0.1-0.1-0.1V12.9c0-0.1,0.1-0.1,0.1-0.1h2.5
	c0.1,0,0.1,0.1,0.1,0.1v4.7c0,0.1,0.1,0.1,0.1,0.1h3.2c0.1,0,0.1-0.1,0.1-0.1v-4.7C106.8,12.9,106.8,12.8,107,12.8z M74.8,15.1v-2
	c0-0.1-0.1-0.1-0.1-0.1h-5.2h-2.6c-0.1,0-0.1,0.1-0.1,0.1v2.3v2.5v2.5v3.1v2.3c0,0.1,0.1,0.1,0.1,0.1h2.6h5.4c0.1,0,0.1-0.1,0.1-0.1
	v-2c0-0.1-0.1-0.1-0.1-0.1h-5.2c-0.1,0-0.1-0.1-0.1-0.1v-2.9c0-0.1,0.1-0.1,0.1-0.1h4.5c0.1,0,0.1-0.1,0.1-0.1v-2
	c0-0.1-0.1-0.1-0.1-0.1h-4.5c-0.1,0-0.1-0.1-0.1-0.1v-2.2c0-0.1,0.1-0.1,0.1-0.1h4.9C74.8,15.3,74.8,15.1,74.8,15.1z M121.1,15.1
	v8.3c0,1.3-1.2,2.5-2.5,2.5h-4.4c-1.3,0-2.5-1.2-2.5-2.5v-8.2c0-1.3,1.2-2.5,2.5-2.5h4.4C119.9,12.6,121.1,13.8,121.1,15.1z
	 M114.6,15.4v7.7c0,0.1,0.1,0.1,0.1,0.1h3.2c0.1,0,0.1-0.1,0.1-0.1v-7.7c0-0.1-0.1-0.1-0.1-0.1h-3.2
	C114.7,15.1,114.6,15.3,114.6,15.4z M44.1,15.1c0,1.6,0,4.2,0,8.2c0,1.3,1.2,2.5,2.5,2.5h4.1c1.3,0,2.5-1.2,2.5-2.5v-4.1
	C53.1,19,53,19,53,19c-4.4,0-0.9,0-4.1,0c-0.1,0-0.1,0.1-0.1,0.1c0,0.4,0,1.3,0,1.7c0,0.1,0.1,0.1,0.1,0.1h1.3
	c0.1,0,0.1,0.1,0.1,0.1V23c0,0.1-0.1,0.1-0.1,0.1h-3.1C47,23.1,47,23,47,23v-7.7c0-0.1,0.1-0.1,0.1-0.1h3.1c0.1,0,0.1,0.1,0.1,0.1
	v1.2c0,0.1,0.1,0.1,0.1,0.1h2.3c0.1,0,0.1-0.1,0.1-0.1V15c0-1.3-1.2-2.5-2.5-2.5h-4.1C45.1,12.6,44,13.8,44.1,15.1z M96.7,18.6
	c-0.9-0.3-2.3-0.6-4.7-1.2c-0.1,0-0.1-0.1-0.1-0.1v-1.9c0-0.1,0.1-0.1,0.1-0.1h2.9c0.1,0,0.1,0.1,0.1,0.1v1.2c0,0.1,0.1,0.1,0.1,0.1
	h2.5c0.1,0,0.1-0.1,0.1-0.1v-1.3c0-1.3-1.2-2.5-2.5-2.5h-4.1c-1.5,0-2.5,1.2-2.5,2.6c0,0.9,0,1.7,0,2.5c0,0.9,0.6,1.7,1.5,2
	c1.7,0.4,1.3,0.4,4.7,1.2c0.1,0,0.1,0.1,0.1,0.1v2.2c0,0.1-0.1,0.1-0.1,0.1h-3.2c-0.1,0-0.1-0.1-0.1-0.1v-1.2c0-0.1-0.1-0.1-0.1-0.1
	h-2.5c-0.1,0-0.1,0.1-0.1,0.1c0,0.9,0,1.2,0,1.2c0,1.5,1.2,2.5,2.5,2.5h4.4c1.5,0,2.5-1.2,2.5-2.5c0-0.7,0-1.6,0-2.8
	C98.1,19.6,97.5,18.7,96.7,18.6z M129.8,21.1h-3.6c-0.1,0-0.1,0.1-0.1,0.1v4.2c0,0.1-0.1,0.1-0.1,0.1h-2.5c-0.1,0-0.1-0.1-0.1-0.1
	v-4.7v-2.3v-3.3v-2.2c0-0.1,0.1-0.1,0.1-0.1h6.4c1.3,0,2.5,1.2,2.5,2.5v3.3C132.3,20.1,131.3,21.1,129.8,21.1z M129.5,18.5v-3.1
	c0-0.1-0.1-0.1-0.1-0.1h-3.1c-0.1,0-0.1,0.1-0.1,0.1v3.1c0,0.1,0.1,0.1,0.1,0.1h3.1C129.4,18.7,129.5,18.6,129.5,18.5z M85.4,12.8
	h-2.3c-0.1,0-0.1,0.1-0.1,0.1v2c0,0.4-0.1,0.7-0.3,1.2l-1.6,2.5L79.5,16c-0.1-0.3-0.3-0.7-0.3-1v-2c0-0.1-0.1-0.1-0.1-0.1h-2.5
	c-0.1,0-0.1,0.1-0.1,0.1v2.6c0,0.1,0,0.4,0.1,0.6l3.1,5.1v0.1v4.2c0,0.1,0.1,0.1,0.1,0.1h2.5c0.1,0,0.1-0.1,0.1-0.1v-4.4v-0.1
	l3.1-4.9c0.1-0.1,0.1-0.3,0.1-0.6v-2.6C85.7,12.8,85.6,12.8,85.4,12.8z M62.9,20.8c0,0.1,1.5,4.7,1.5,4.7c0,0.1,0,0.3-0.1,0.3h-2.5
	c-0.1,0-0.1,0-0.1-0.1l-1.5-4.7c0-0.1-0.1-0.1-0.1-0.1h-1.5c-0.1,0-0.1,0.1-0.1,0.1v4.5c0,0.1-0.1,0.1-0.1,0.1h-2.5
	c-0.1,0-0.1-0.1-0.1-0.1v-4.7v-2.3v-3.3v-2.2c0-0.1,0.1-0.1,0.1-0.1h6.7c1.3,0,2.3,1,2.3,2.3v3.1C64.5,20.6,62.9,20.3,62.9,20.8z
	 M61.7,18.3v-2.9c0-0.1-0.1-0.1-0.1-0.1h-3.1c-0.1,0-0.1,0.1-0.1,0.1v2.9c0,0.1,0.1,0.1,0.1,0.1h3.1L61.7,18.3z"/>
<path class="st0" d="M24.3,16.2c0,0-0.3,0.1-0.6,0.1c-0.1,0-0.3-0.3-0.4-0.4c-0.3-0.3-0.7-0.6-0.7-0.6l0.6-0.4
	C23.6,15.2,23.7,15.2,24.3,16.2z"/>
<path class="st0" d="M24,11.5c-0.1,0.3-0.4,1-0.1,1.2c0.1,0,0.3-0.7,0.4-0.9c0.3-0.3,0.9-0.3,1.3-0.3c0.4,0,1.7-0.4,1.7-0.8
	c0-0.6-1.2-0.7-1.7-0.7C24.6,10.2,24.7,10.5,24,11.5z"/>
<g>
	<g>
		<path class="st0" d="M28.1,11.6c0,0.1,0.1,0.1,0.1,0.3c0,0.1,0,0.3,0,0.4v0.1v0.1c0,0.1-0.1,0.1-0.1,0.3c-1.3-0.1-2.3-0.4-2.3-0.4
			h-0.1l0,0c0-0.1,0.6-0.3,0.9-0.4C26.8,11.9,27.4,11.8,28.1,11.6z"/>
	</g>
	<g>
		<path class="st0" d="M19.2,14.2c0,1-2.8,0.4-2.8-0.1C16.5,13.2,19.1,14.2,19.2,14.2z"/>
	</g>
</g>
<path class="st0" d="M18.5,24c0,0.3-0.3,1.7,0.9,1.2c0.7-0.3,0.4-1.7-0.1-1.7c-0.1,0-1.3,0-1.5,0.3C17.8,23.8,18.3,23.8,18.5,24z"/>
<path class="st0" d="M20.2,29.4c-0.3-0.4-6.4-0.4-6.3-0.1C14.9,30.4,20.6,29.8,20.2,29.4z"/>
<path class="st0" d="M23,21.9c0.4,0-4.1-3.8-4.2-3.9c-0.1,0-0.3,0.6,0,0.7c1.2,1,1.5,1,3.1,2.5L23,21.9z"/>
<path class="st0" d="M15.4,18.5C15,17.6,15.1,17,15.1,17c-0.1,0.1-0.1,0.1-0.3,0.4c-0.1,0-0.3,0.1-0.3,0.1
	C14.6,19,14.9,19.5,15.4,18.5z"/>
<path class="st0" d="M24.3,25.9L24.3,25.9c0,0-1.2-0.7-1.5-1c-0.1,0.4-0.4,0.9-0.6,1.5c-0.3,1-0.6,1.9-0.7,2.6l0,0l1.5,0.4
	L24.3,25.9z"/>
<path class="st0" d="M19.3,20.9c-1-0.5-1.9-1.1-2.9-1.6c-0.1,0-0.3,0.3-0.3,0.4c-0.1,0.4-0.3,0.9-0.6,1.2c-0.1,0.2-0.1,0.4,0,0.6
	c0.1,0.1,0.2,0.2,0.2,0.2c1.4,0.7,2.1,1.1,2.6,0.9C19.1,22.2,19.3,21.1,19.3,20.9z"/>
<polygon class="st0" points="29,27.2 30.1,27.9 30.3,27.8 29.1,27 "/>
<path class="st0" d="M14.4,24.7"/>
<path class="st0" d="M10.9,23.4c0.6,5.5,3.5,0,5.7,0.7c-0.7,1.3-0.4,1.7,1,1c0.4-0.7,0.3-1.6-0.3-2C15,23.3,10.5,26,12.2,24
	c0.7-1.9-1.9-4.4,2-3.6c1.2,0.3-1.7-2.9-1.5-1.7C11.4,19.8,10.8,21.5,10.9,23.4z"/>
<path class="st0" d="M26.3,26.6c0.6,0.3,1.3,0.7,1.9,1l0.1-0.3L25,25.2l0.2-0.4l3.5,2.2l0.3-0.6c0,0-7.7-4.9-8-4.9
	c-0.3,0-0.4,0-0.4,0c-0.1,0-0.3,0.1-0.3,0.1l-0.3-0.1c0.1-0.3-0.9-0.7-0.9-0.7l-0.9,1.7c0.7,0.1,1.5,0.2,2.2,0.3
	C22.4,24.1,24.4,25.3,26.3,26.6z"/>
<path class="st0" d="M26.9,16.9c-0.1,0.2-0.4,0.6-0.6,0.8l5.8,3.6c0.1-0.2,0.4-0.5,0.6-0.7C30.7,19.4,28.8,18.1,26.9,16.9z"/>
<path class="st0" d="M16,15.6L15.9,15c-0.1,0.1-0.4,0.1-0.5,0.1c0,0.1,0.3,1.4,0.6,1.4C16.5,16.8,16.6,16.4,16,15.6z"/>
<g>
	<path class="st0" d="M21,23.7c0,0-1.3-0.4-1.3-0.3c0,0.1,0,0.7,1.3,0.9c0.7,0.1,1,0.4,1,0.1C22,24.2,21.3,23.7,21,23.7z"/>
	<path class="st0" d="M19.3,23.4c0,0.1,0.2,0.7,0.2,1c0,0.3,0.5,0.1,0.5-0.1c0-0.3,0.2-0.8-0.1-0.9C19.9,23.4,19.4,23.4,19.3,23.4z"
		/>
</g>
<path class="st0" d="M30,20.9"/>
<path class="st0" d="M27.1,19c0,0-0.1-0.1-0.4,0c-0.1,0-0.1,0.1-0.1,0.1l-0.7-0.4l0.1-0.1v-0.1c0-0.1,0-0.1-0.1-0.1l-1.6-1
	c-0.4-0.3-0.9-0.4-1.5-0.7c-0.1,0.1-1.3,1.3-1.5,2c0,0.1,0,0.3,0,0.4c0,0.1,0.1,0.1,0.4,0.3c0.3,0.1,0.4,0.3,0.6,0
	c0,0-0.1-0.1-0.1-0.3c0-0.3,0.4-0.7,0.6-0.9s0.6,0,0.9,0.1c0.4,0.3,1.2,0.6,1.7,1c0.1,0.1,0.1,0.3,0.1,0.3l0.4,0.1
	c0.6,0.1,1.2,0.6,2.9,1.9c0.3,0.1,0.4,0.3,0.7,0.4l0.4-0.3c1.7,1,2.2,1.2,2.3,1.3c0.1-0.1,0.3-0.3,0.4-0.4
	C30.7,21.4,28.8,20.2,27.1,19z"/>
<line class="st11" x1="32.9" y1="22.5" x2="32.8" y2="22.4"/>
<path class="st0" d="M32.4,22.6c0,0-0.3,0.1-0.3,0.4c0,0,0,0.3,0.1,0.4c0.3,0.1,0.4,0,0.7,0.3c0.1,0,3.8,2.5,3.8,2.5l0.4-0.7
	l-4.1-2.6l-0.3-0.3l-0.1-0.1l0,0l0,0C32.6,22.5,32.4,22.5,32.4,22.6z"/>
<line class="st11" x1="32.6" y1="22.5" x2="32.8" y2="22.7"/>
<path id="test_hand_snipewr" class="st0" d="M22,20.1c0,0.3,0.6,0.4,1,0.7c0.9,0.4,1.5,0.1,1.5-0.3c0-0.3-0.7-0.7-1.5-0.7
	C22.3,19.8,22,19.8,22,20.1z"/>
<polygon class="st0" points="27.6,23.4 29,24 29.5,22.7 28.2,22.2 27.7,22.8 "/>
<circle class="st12" cx="21.8" cy="19.6" r="14.3"/>
</svg>
