<?xml version="1.0" encoding="utf-8"?>
<!-- Generator: Adobe Illustrator 22.0.1, SVG Export Plug-In . SVG Version: 6.00 Build 0)  -->
<svg version="1.1" id="Layer_2" xmlns="http://www.w3.org/2000/svg" xmlns:xlink="http://www.w3.org/1999/xlink" x="0px" y="0px"
	 viewBox="0 0 150 37.5" style="enable-background:new 0 0 150 37.5;" xml:space="preserve">
<style type="text/css">
	.st0{opacity:0.85;fill:#FFFFFF;}
	.st1{fill:url(#SVGID_1_);}
	.st2{fill:url(#SVGID_2_);}
	.st3{fill:url(#SVGID_3_);}
	.st4{fill:url(#SVGID_4_);}
	.st5{fill:url(#SVGID_5_);}
	.st6{fill:url(#SVGID_6_);}
	.st7{fill:url(#SVGID_7_);}
	.st8{fill:url(#SVGID_8_);}
	.st9{fill:url(#SVGID_9_);}
	.st10{fill:url(#SVGID_10_);}
	.st11{fill:#FFFFFF;}
	.st12{fill:none;}
	.st13{fill:none;stroke:#FFFFFF;stroke-width:0.9;stroke-linecap:round;stroke-miterlimit:10;}
</style>
<g id="zvezda">
	<path class="st0" d="M32.8,30.2h98.3c1.8,0,3.4-1.6,3.4-3.5v-15c0-1.9-1.5-3.5-3.4-3.5H31.3c0,3.1,4.5,1.9,4.6,10.6
		c0,2.5-0.4,4.9-1.5,7.1c-0.6,1.2-3.2,3.9-3.1,4.2C31.4,30.7,32,30.5,32.8,30.2z"/>
	<g>
		
			<linearGradient id="SVGID_1_" gradientUnits="userSpaceOnUse" x1="25.0886" y1="26.8067" x2="29.6264" y2="22.0051" gradientTransform="matrix(1 0 0 -1 0 38.8661)">
			<stop  offset="0" style="stop-color:#E6E6E6"/>
			<stop  offset="1" style="stop-color:#808080"/>
		</linearGradient>
		<polygon class="st1" points="23,0.2 22.9,19.3 28.1,12 		"/>
		
			<linearGradient id="SVGID_2_" gradientUnits="userSpaceOnUse" x1="39.8247" y1="25.7464" x2="21.4791" y2="23.3003" gradientTransform="matrix(1 0 0 -1 0 38.8661)">
			<stop  offset="0" style="stop-color:#E6E6E6"/>
			<stop  offset="1" style="stop-color:#808080"/>
		</linearGradient>
		<polygon class="st2" points="28.1,12 22.9,18 42.1,12.9 		"/>
	</g>
	<g>
		
			<linearGradient id="SVGID_3_" gradientUnits="userSpaceOnUse" x1="38.6255" y1="26.3111" x2="30.2445" y2="17.7804" gradientTransform="matrix(1 0 0 -1 0 38.8661)">
			<stop  offset="0" style="stop-color:#66AEFF"/>
			<stop  offset="1" style="stop-color:#0044FF"/>
		</linearGradient>
		<polygon class="st3" points="42.8,15.1 23.4,21.2 32,24 		"/>
		
			<linearGradient id="SVGID_4_" gradientUnits="userSpaceOnUse" x1="29.8264" y1="12.5665" x2="37.5437" y2="-1.0605" gradientTransform="matrix(1 0 0 -1 0 38.8661)">
			<stop  offset="0" style="stop-color:#66AEFF"/>
			<stop  offset="1" style="stop-color:#0044FF"/>
		</linearGradient>
		<polygon class="st4" points="23.4,21.2 35.5,36 32,24 		"/>
	</g>
	<g>
		
			<linearGradient id="SVGID_5_" gradientUnits="userSpaceOnUse" x1="19.9258" y1="10.7195" x2="12.3974" y2="-0.9914" gradientTransform="matrix(1 0 0 -1 0 38.8661)">
			<stop  offset="0" style="stop-color:#FF6666"/>
			<stop  offset="1" style="stop-color:#B80000"/>
		</linearGradient>
		<polygon class="st5" points="10,37.3 21.8,31.4 21.8,22.4 		"/>
		
			<linearGradient id="SVGID_6_" gradientUnits="userSpaceOnUse" x1="22.8866" y1="19.1748" x2="25.7761" y2="10.4375" gradientTransform="matrix(1 0 0 -1 0 38.8661)">
			<stop  offset="0" style="stop-color:#FF6666"/>
			<stop  offset="1" style="stop-color:#B80000"/>
		</linearGradient>
		<polygon class="st6" points="21.8,22.4 21.8,31.4 33.6,37.3 		"/>
	</g>
	<g>
		
			<linearGradient id="SVGID_7_" gradientUnits="userSpaceOnUse" x1="5.8348" y1="25.2518" x2="11.9705" y2="19.3405" gradientTransform="matrix(1 0 0 -1 0 38.8661)">
			<stop  offset="0" style="stop-color:#66AEFF"/>
			<stop  offset="1" style="stop-color:#0044FF"/>
		</linearGradient>
		<polygon class="st7" points="1,15.1 11.8,24.1 20.2,21.4 		"/>
		
			<linearGradient id="SVGID_8_" gradientUnits="userSpaceOnUse" x1="16.4021" y1="18.316" x2="8.3479" y2="-3.511083e-03" gradientTransform="matrix(0.9998 2.170741e-02 2.170741e-02 -0.9998 -0.5785 39.4771)">
			<stop  offset="0" style="stop-color:#66AEFF"/>
			<stop  offset="1" style="stop-color:#0044FF"/>
		</linearGradient>
		<polygon class="st8" points="19.9,21.4 11.2,24.4 7.3,36 		"/>
	</g>
	<g>
		
			<linearGradient id="SVGID_9_" gradientUnits="userSpaceOnUse" x1="21.2509" y1="33.8666" x2="17.9782" y2="21.8316" gradientTransform="matrix(1 0 0 -1 0 38.8661)">
			<stop  offset="0" style="stop-color:#E6E6E6"/>
			<stop  offset="1" style="stop-color:#808080"/>
		</linearGradient>
		<polygon class="st9" points="20.8,0.2 15.7,12 21,19.3 		"/>
		
			<linearGradient id="SVGID_10_" gradientUnits="userSpaceOnUse" x1="12.1247" y1="22.8181" x2="26.6443" y2="23.6589" gradientTransform="matrix(1 0 0 -1 0 38.8661)">
			<stop  offset="0" style="stop-color:#E6E6E6"/>
			<stop  offset="1" style="stop-color:#808080"/>
		</linearGradient>
		<polygon class="st10" points="15.7,12 1.6,12.9 21,19.3 		"/>
	</g>
</g>
<g>
	<path d="M37.7,25.7c0.1,0.1,0.2,0.2,0.3,0.3l0.9,0.4l0.3,0.7l2.8,1.7c0,0,0.3-0.3,0.4-0.4c0,0,0-0.1,0-0.1c0,0,0.1-0.1,0.1-0.1
		c0,0,0.1,0.1,0.1,0.1c-0.1,0.2-0.3,0.5-0.4,0.7l0.1,0.1h0.1l1,0.7c0,0.1-0.1,0.3-0.3,0.3l-1-0.7c0,0,0-0.1,0-0.1
		c-1.6-1-3.2-2-4.8-3.1c-0.1,0-0.2-0.1-0.3-0.1c-0.1,0-0.4,0.1-0.6,0c-0.2-0.1-0.2-0.1-0.3-0.2c-0.2-0.1-0.4-0.3-0.9-0.5
		c-0.1-0.3-0.6-0.6-1-0.7c-0.3-0.3-0.7-0.4-1-0.7c-0.1-0.1-1.2-0.6-1.2-0.6c-0.3,0.3-0.9,0.1-1,0.3c0,0.1-0.1,0.4-0.3,0.4
		c-0.3,0.3-1,0.7-1.6,0.7c0,0,0,0.4,0,1.3c0,0.1,0,0.3,0,0.4c0.4,0.3,0.9,0.6,1.3,0.7l0.1,0.1c0,0.1-0.1,0.3-0.1,0.3s-0.1,0.3,0,0.4
		l0.1,0.1c0.3,0.1,0.6,0.3,0.9,0.4c0.4,0.3,0.7,0.4,1.2,0.7c0,0,0.1,0,0.1,0.1h0.1l1.2,0.7c0,0,0,0.3-0.1,0.3
		c-0.1,0.3-0.3,0.3-0.3,0.3l-1.3-0.7v-0.1l0-0.3c0,0,0,0.1-0.1,0.1l-1.2-0.7c-0.1-0.1-0.4-0.3-0.6-0.3l-0.1-0.1l-1.2-0.7
		c0,1.2,0,3-0.2,3.3l-2.3,1.6c-1.3,0.4-3.6,1.2-6.5,0.9c-4.1-0.4-6.8-2.6-8-3.5c0.1-0.3,0.4-0.4,0.6-0.7c0.3-0.7,0.3-1.2,0.1-1.5
		c0-0.1,0-0.3-0.1-0.6c-0.1-0.1-0.1-0.3-0.1-0.6c0-0.1-0.3-0.3-0.4-0.3c-0.3,0-0.6,0-0.9,0c-0.9-0.9-1-1.5-1.2-2.5
		c0-0.1-0.3-0.4-0.3-0.6s0.1-0.4,0.1-0.6c0-0.4-0.1-0.9-0.1-0.9c0-0.1,0.3-0.4,0.3-0.6c0.1-0.3,0.1-1.9,1.2-2.8
		c0.3-0.3,1.2-0.9,1.2-0.9s0.7-0.4,1.6-0.9c0.1,0,0.3,0.1,0.4,0.1c0,0,0-0.1,0.1-0.6c0,0,0.3-0.4,0.3-1c-0.1-0.1-0.1-0.3-0.1-0.4
		c0-0.1-0.1-0.3-0.3-0.3s-0.3,0-0.3,0c-0.1,0-0.1-0.1-0.3-0.1c-0.1-0.1-0.3-0.3-0.1-0.4c0-0.4,0.1-1,0.1-1.2c0-0.1,0.3-0.3,0.4-0.3
		c0.4-0.6,0.1-1,0.9-1.7c1.2-1.2,3.6-1,4.4,0.6c0.4,0.9,0.4,1.7,0.4,1.7s0.3,0.3,0.3,0.7c0.1,0.4-0.1,0.7-0.4,1
		c-0.1,0.3-0.6,0.1-0.7,0.3c0,0.1-0.6,1.5-0.6,1.5c0,0.1-0.3,0.6-0.4,0.6c0.1,0,0.4,0.1,0.6,0.3c0.9-1.5,1-1.7,1.6-1.9l2-1.2
		c0,0-0.3-0.4-0.1-0.6c0-0.3,0.6-0.7,0.6-0.9s0-0.9,0.1-1.2c0.1-0.3,0.4-2.9,2.5-2.9c0.4,0,0.7,0,1,0.1c0.1,0,1,0.3,1.7,1
		c0.3,0.4,0.4,0.7,0.4,0.9c0,0,0,0,0.1,0.3c0.3,0.9,0.3,1,0.4,1.2c0.1,0.1,0.3,0.3,0.3,0.6c0,0.3-0.4,1-0.6,1.3
		c-0.1,0.4-0.4,0.1-1.2,0.7c0,0-0.1,0.1-0.4,0.3c0.1,0.1,0.7,0.6,0.7,0.7l0.1,0.3l0.9,0.7c0.3,0.3,0.7,0.7,1,1.6
		c0.1,0.4,0.1,0.9,0.3,1.3c0.4,0.1,0.6,0.3,0.6,0.4l0.4,0.3c0,0.1,0.1,0.1,0.1,0.3c0.1,0.1,0.1,0.3,0,0.4l0.4,0.3l0.1-0.1l0.6,0.3
		c0,0,0,0,0.1,0c0,0,0.2,0.1,0.2,0.1l4.4,2.8L37.7,25.7z"/>
	<path d="M37.6,25.4"/>
</g>
<path class="st11" d="M24.3,16.2c0,0-0.3,0.1-0.6,0.1c-0.1,0-0.3-0.3-0.4-0.4c-0.3-0.3-0.7-0.6-0.7-0.6l0.6-0.4
	C23.6,15.2,23.7,15.2,24.3,16.2z"/>
<path class="st11" d="M24,11.5c-0.1,0.3-0.4,1-0.1,1.2c0.1,0,0.3-0.7,0.4-0.9c0.3-0.3,0.9-0.3,1.3-0.3c0.4,0,1.7-0.4,1.7-0.8
	c0-0.6-1.3-0.7-1.7-0.7C24.7,10.2,24.7,10.5,24,11.5z"/>
<g>
	<g>
		<path class="st11" d="M28.2,12.6c0,0.5-0.1,0.9-0.1,1.4c0,0.1-0.2-1.2-0.2-1c-1.3-0.1-2.3-0.4-2.3-0.4h-0.1
			c0.2-0.1,0.5-0.3,0.9-0.4c0.4-0.2,0.9-0.3,1.3-0.3c0.1,0,0.3,0,0.3,0C28.1,11.8,28.1,12.3,28.2,12.6z"/>
	</g>
	<g>
		<path class="st11" d="M19,14.3c0,1-2.8,0.4-2.8-0.1C16.2,13.3,18.8,14.3,19,14.3z"/>
	</g>
</g>
<path class="st11" d="M18.5,24c0,0.3-0.3,1.7,0.9,1.2c0.7-0.3,0.4-1.7-0.1-1.7c-0.1,0-1.3,0-1.5,0.3C17.8,23.8,18.3,23.8,18.5,24z"
	/>
<path class="st11" d="M20.6,29.8c-0.2-0.4-6.3-1.4-6.2-1.1C15.1,30,20.8,30.3,20.6,29.8z"/>
<path class="st11" d="M20.7,28.4c-0.1-0.7-5.9-1.2-6-1C15.9,27.9,20.4,28.6,20.7,28.4z"/>
<path class="st11" d="M23,21.9c0.4,0-4.1-3.8-4.2-3.9c-0.1,0-0.3,0.6,0,0.7c1.2,1,1.5,1,3.1,2.5L23,21.9z"/>
<path class="st11" d="M15.4,18.5C15,17.6,15.1,17,15.1,17c-0.1,0.1-0.1,0.1-0.3,0.4c-0.1,0-0.3,0.1-0.3,0.1
	C14.6,19,14.9,19.5,15.4,18.5z"/>
<path class="st11" d="M24.3,25.9L24.3,25.9c0,0-1.2-0.7-1.5-1c-0.1,0.4-0.4,0.9-0.6,1.5c-0.3,1-0.6,1.9-0.7,2.6l0,0l1.5,0.4
	L24.3,25.9z"/>
<path class="st11" d="M19.3,20.9c-1-0.5-1.9-1.1-2.9-1.6c-0.1,0-0.3,0.3-0.3,0.4c-0.1,0.4-0.3,0.9-0.6,1.2c-0.1,0.2-0.1,0.4,0,0.6
	c0.1,0.1,0.2,0.2,0.2,0.2c1.4,0.7,2.1,1.1,2.6,0.9C19.1,22.2,19.3,21.1,19.3,20.9z"/>
<polygon class="st11" points="29,27.2 30.1,27.9 30.3,27.8 29.1,27 "/>
<path class="st11" d="M14.4,24.7"/>
<path class="st11" d="M10.9,23.4c0.6,5.5,3.5,0,5.7,0.7c-0.7,1.3-0.4,1.7,1,1c0.4-0.7,0.3-1.6-0.3-2C15,23.3,10.5,26,12.2,24
	c0.7-1.9-1.9-4.4,2-3.6c1.2,0.3-1.7-2.9-1.5-1.7C11.4,19.8,10.8,21.5,10.9,23.4z"/>
<path class="st11" d="M26.3,26.6c0.6,0.3,1.3,0.7,1.9,1l0.1-0.3L25,25.2l0.2-0.4l3.5,2.2l0.3-0.6c0,0-7.7-4.9-8-4.9
	c-0.3,0-0.4,0-0.4,0c-0.1,0-0.3,0.1-0.3,0.1l-0.3-0.1c0.1-0.3-0.9-0.7-0.9-0.7l-0.9,1.7c0.7,0.1,1.5,0.2,2.2,0.3
	C22.4,24.1,24.4,25.3,26.3,26.6z"/>
<path class="st11" d="M26.9,16.9c-0.1,0.2-0.4,0.6-0.6,0.8l5.8,3.6c0.1-0.2,0.4-0.5,0.6-0.7C30.7,19.4,28.8,18.1,26.9,16.9z"/>
<path class="st11" d="M16,15.6L15.9,15c-0.1,0.1-0.4,0.1-0.5,0.1c0,0.1,0.3,1.4,0.6,1.4C16.5,16.8,16.6,16.4,16,15.6z"/>
<g>
	<path class="st11" d="M21,23.7c0,0-1.3-0.4-1.3-0.3c0,0.1,0,0.7,1.3,0.9c0.7,0.1,1,0.4,1,0.1C22,24.2,21.3,23.7,21,23.7z"/>
	<path class="st11" d="M19.3,23.4c0,0.1,0.2,0.7,0.2,1c0,0.3,0.5,0.1,0.5-0.1c0-0.3,0.2-0.8-0.1-0.9C19.9,23.4,19.4,23.4,19.3,23.4z
		"/>
</g>
<path class="st11" d="M30,20.9"/>
<path class="st11" d="M27.1,19c0,0-0.1-0.1-0.4,0c-0.1,0-0.1,0.1-0.1,0.1l-0.7-0.4l0.1-0.1v-0.1c0-0.1,0-0.1-0.1-0.1l-1.6-1
	c-0.4-0.3-0.9-0.4-1.5-0.7c-0.1,0.1-1.3,1.3-1.5,2c0,0.1,0,0.3,0,0.4c0,0.1,0.1,0.1,0.4,0.3c0.3,0.1,0.4,0.3,0.6,0
	c0,0-0.1-0.1-0.1-0.3c0-0.3,0.4-0.7,0.6-0.9s0.6,0,0.9,0.1c0.4,0.3,1.2,0.6,1.7,1c0.1,0.1,0.1,0.3,0.1,0.3l0.4,0.1
	c0.6,0.1,1.2,0.6,2.9,1.9c0.3,0.1,0.4,0.3,0.7,0.4l0.4-0.3c1.7,1,2.2,1.2,2.3,1.3c0.1-0.1,0.3-0.3,0.4-0.4
	C30.7,21.4,28.8,20.2,27.1,19z"/>
<line class="st12" x1="32.9" y1="22.5" x2="32.8" y2="22.4"/>
<path class="st11" d="M32.4,22.6c0,0-0.3,0.1-0.3,0.4c0,0,0,0.3,0.1,0.4c0.3,0.1,0.4,0,0.7,0.3c0.1,0,3.8,2.5,3.8,2.5l0.4-0.7
	l-4.1-2.6l-0.3-0.3l-0.1-0.1l0,0l0,0C32.6,22.5,32.4,22.5,32.4,22.6z"/>
<line class="st12" x1="32.6" y1="22.5" x2="32.8" y2="22.7"/>
<path id="test_hand_snipewr" class="st11" d="M22,20.1c0,0.3,0.6,0.4,1,0.7c0.9,0.4,1.5,0.1,1.5-0.3c0-0.3-0.7-0.7-1.5-0.7
	C22.3,19.8,22,19.8,22,20.1z"/>
<polygon class="st11" points="27.5,23.3 29.1,24 29.6,22.5 28.2,22 27.7,22.7 "/>
<circle class="st13" cx="21.8" cy="19.6" r="14.3"/>
<path d="M103.1,13.2h2.3c0.1,0,0.2,0.1,0.2,0.2v11.9c0,0.1-0.1,0.2-0.2,0.2h-2.3c-0.1,0-0.2-0.1-0.2-0.2v-4.8c0-0.1-0.1-0.2-0.2-0.2
	h-3.1c-0.1,0-0.2,0.1-0.2,0.2v4.8c0,0.1-0.1,0.2-0.2,0.2h-2.3c-0.1,0-0.2-0.1-0.2-0.2V13.4c0-0.1,0.1-0.2,0.2-0.2h2.3
	c0.1,0,0.2,0.1,0.2,0.2v4.4c0,0.1,0.1,0.2,0.2,0.2h3.1c0.1,0,0.2-0.1,0.2-0.2v-4.4C102.9,13.3,103,13.2,103.1,13.2z M72.7,15.4v-2
	c0-0.1-0.1-0.2-0.2-0.2h-4.9h-2.5c-0.1,0-0.2,0.1-0.2,0.2v2.2V18v2.4v2.9v2.2c0,0.1,0.1,0.2,0.2,0.2h2.5h5.1c0.1,0,0.2-0.1,0.2-0.2
	v-2c0-0.1-0.1-0.2-0.2-0.2h-4.9c-0.1,0-0.2-0.1-0.2-0.2v-2.5c0-0.1,0.1-0.2,0.2-0.2H72c0.1,0,0.2-0.1,0.2-0.2v-1.9
	c0-0.1-0.1-0.2-0.2-0.2h-4.2c-0.1,0-0.2-0.1-0.2-0.2v-2c0-0.1,0.1-0.2,0.2-0.2h4.7C72.6,15.6,72.7,15.5,72.7,15.4z M116.5,15.5v7.7
	c0,1.3-1.1,2.4-2.4,2.4H110c-1.3,0-2.4-1.1-2.4-2.4v-7.7c0-1.3,1.1-2.4,2.4-2.4h4.1C115.5,13.1,116.5,14.2,116.5,15.5z M110.4,15.7
	v7.4c0,0.1,0.1,0.2,0.2,0.2h3.1c0.1,0,0.2-0.1,0.2-0.2v-7.4c0-0.1-0.1-0.2-0.2-0.2h-3.1C110.4,15.5,110.4,15.6,110.4,15.7z
	 M43.4,15.5c0,1.5,0,3.9,0,7.7c0,1.3,1.1,2.4,2.4,2.4h3.9c1.3,0,2.4-1.1,2.4-2.4v-3.9c0-0.1-0.1-0.2-0.2-0.2c-4.1,0-0.8,0-3.9,0
	c-0.1,0-0.2,0.1-0.2,0.2c0,0.4,0,1.3,0,1.7c0,0.1,0.1,0.2,0.2,0.2h1.2c0.1,0,0.2,0.1,0.2,0.2l0,1.6c0,0.1-0.1,0.2-0.2,0.2h-2.8
	c-0.1,0-0.2-0.1-0.2-0.2v-7.4c0-0.1,0.1-0.2,0.2-0.2h2.9c0.1,0,0.2,0.1,0.2,0.2l0,1.2c0,0.1,0.1,0.2,0.2,0.2h2.3
	c0.1,0,0.2-0.1,0.2-0.2v-1.3c0-1.3-1.1-2.4-2.4-2.4h-3.9C44.5,13.1,43.4,14.2,43.4,15.5z M93.3,18.7c-0.9-0.2-2.2-0.6-4.4-1.2
	c-0.1,0-0.1-0.1-0.1-0.2v-1.8c0-0.1,0.1-0.2,0.2-0.2h2.8c0.1,0,0.2,0.1,0.2,0.2v1.2c0,0.1,0.1,0.2,0.2,0.2h2.3
	c0.1,0,0.2-0.1,0.2-0.2v-1.2c0-1.3-1.1-2.4-2.4-2.4l-3.8,0c-1.3,0-2.4,1.1-2.4,2.4c0,0.8,0,1.7,0,2.4c0,0.9,0.6,1.6,1.4,1.9
	c1.6,0.5,1.3,0.4,4.4,1.1c0.1,0,0.2,0.1,0.2,0.2v2c0,0.1-0.1,0.2-0.2,0.2h-3.1c-0.1,0-0.2-0.1-0.2-0.2v-1.1c0-0.1-0.1-0.2-0.2-0.2
	h-2.3c-0.1,0-0.2,0.1-0.2,0.2c0,0.8,0,1.1,0,1.1c0,1.3,1,2.4,2.4,2.4l4.1,0c1.3,0,2.4-1.1,2.4-2.4c0-0.6,0-1.5,0-2.6
	C94.8,19.8,94.2,19,93.3,18.7z M124.8,21.2h-3.4c-0.1,0-0.2,0.1-0.2,0.2v4c0,0.1-0.1,0.2-0.2,0.2h-2.3c-0.1,0-0.2-0.1-0.2-0.2v-4.5
	v-2.3v-3.1v-2.1c0-0.1,0.1-0.2,0.2-0.2h6.1c1.3,0,2.4,1.1,2.4,2.4v3.2C127.2,20.1,126.1,21.2,124.8,21.2z M124.5,18.7v-2.9
	c0-0.1-0.1-0.2-0.2-0.2h-2.9c-0.1,0-0.2,0.1-0.2,0.2v2.9c0,0.1,0.1,0.2,0.2,0.2h2.9C124.4,18.8,124.5,18.8,124.5,18.7z M82.8,13.2
	h-2.2c-0.1,0-0.2,0.1-0.2,0.2v2c0,0.4-0.1,0.7-0.3,1l-1.5,2.4L77,16.3c-0.2-0.3-0.3-0.7-0.3-1v-1.9c0-0.1-0.1-0.2-0.2-0.2h-2.3
	c-0.1,0-0.2,0.1-0.2,0.2v2.5c0,0.2,0.1,0.4,0.1,0.5l3,4.8l0.1,0.1v4.1c0,0.1,0.1,0.2,0.2,0.2h2.3c0.1,0,0.2-0.1,0.2-0.2v-4.1
	l0.1-0.1l2.9-4.7c0.1-0.2,0.1-0.3,0.1-0.5v-2.5C83,13.3,82.9,13.2,82.8,13.2z M61.4,20.9c0,0.1,1.4,4.4,1.4,4.4
	c0,0.1-0.1,0.3-0.2,0.3h-2.3c-0.1,0-0.2-0.1-0.2-0.1L58.7,21c0-0.1-0.1-0.1-0.2-0.1h-1.4c-0.1,0-0.2,0.1-0.2,0.2v4.3
	c0,0.1-0.1,0.2-0.2,0.2h-2.3c-0.1,0-0.2-0.1-0.2-0.2v-4.5v-2.3v-3.1v-2.1c0-0.1,0.1-0.2,0.2-0.2h6.3c1.2,0,2.2,1,2.2,2.2v2.9
	C62.9,20.7,61.4,20.5,61.4,20.9z M60.2,18.4v-2.7c0-0.1-0.1-0.2-0.2-0.2h-2.9c-0.1,0-0.2,0.1-0.2,0.2v2.7c0,0.1,0.1,0.2,0.2,0.2H60
	C60.1,18.6,60.2,18.5,60.2,18.4z"/>
<path class="st11" d="M25.5,14.8c-0.4,0.7-0.5,0.9-0.5,0.8c0-0.1-0.3-0.4-0.4-0.4c-0.1-0.1-0.2-0.3-0.2-0.3c0.1-0.1,0.4,0.2,0.5,0.2
	c0.4,0.1,0.3-0.2-0.1-0.6c-0.2-0.2-0.4-0.4-0.5-0.7c-0.1-0.2-0.1-0.4-0.1-0.6c0.5,0.9,0.8,1,1.3,1.4C25.5,14.7,25.5,14.8,25.5,14.8z
	"/>
<path class="st11" d="M25,21.6c-0.1,0-0.3-0.5-0.2-0.9c0-0.2,0.1-0.5,0.4-0.7c0.2-0.1,0.4,0,0.7,0.1c0.2,0.1,0.4,0.2,0.7,0.4
	c0.4,0.3,0.7,0.9,0.6,1c-0.2,0.2-1.1-0.3-1.2-0.4c-0.3-0.2-0.4-0.3-0.6-0.2C25.1,21,25.1,21.6,25,21.6z"/>
<path class="st11" d="M28.9,30c0.1-0.1-1,0.2-2.1,0.6c-1.2,0.4-2.2,0-2.2,0.3c0,0.1,1.1,0.3,2.3,0C28,30.5,28.7,30.2,28.9,30z"/>
</svg>
