<?xml version="1.0" encoding="UTF-8" standalone="no"?>
<svg
   xmlns:svg="http://www.w3.org/2000/svg"
   xmlns="http://www.w3.org/2000/svg"
   viewBox="0 0 187.5 46.875"
   height="46.875"
   width="187.5"
   xml:space="preserve"
   version="1.1"
   id="svg2"><defs
     id="defs6"><clipPath
       id="clipPath16"
       clipPathUnits="userSpaceOnUse"><path
         id="path18"
         d="m 34.846,29.478 0,-21.506 105.947,0 9.207,21.506 -115.154,0 z" /></clipPath><linearGradient
       id="linearGradient24"
       spreadMethod="pad"
       gradientTransform="matrix(0,-18.162456,-18.162456,0,92.423134,35.400333)"
       gradientUnits="userSpaceOnUse"
       y2="0"
       x2="1"
       y1="0"
       x1="0"><stop
         id="stop26"
         offset="0"
         style="stop-opacity:1;stop-color:#ff6666" /><stop
         id="stop28"
         offset="1"
         style="stop-opacity:1;stop-color:#b80000" /></linearGradient><clipPath
       id="clipPath36"
       clipPathUnits="userSpaceOnUse"><path
         id="path38"
         d="m 133.479,7.972 -105.947,0 0,21.505 115.153,0 -9.206,-21.505 z" /></clipPath><linearGradient
       id="linearGradient44"
       spreadMethod="pad"
       gradientTransform="matrix(0,-19.077312,-19.077312,0,85.108406,35.274216)"
       gradientUnits="userSpaceOnUse"
       y2="0"
       x2="1"
       y1="0"
       x1="0"><stop
         id="stop46"
         offset="0"
         style="stop-opacity:1;stop-color:#66aeff" /><stop
         id="stop48"
         offset="1"
         style="stop-opacity:1;stop-color:#0044ff" /></linearGradient><clipPath
       id="clipPath56"
       clipPathUnits="userSpaceOnUse"><path
         id="path58"
         d="m 0,37.5 150,0 L 150,0 0,0 0,37.5 Z" /></clipPath></defs><g
     transform="matrix(1.25,0,0,-1.25,0,46.875)"
     id="g10"><g
       id="g12"><g
         clip-path="url(#clipPath16)"
         id="g14"><g
           id="g20"><g
             id="g22"><path
               id="path30"
               style="fill:url(#linearGradient24);stroke:none"
               d="m 34.846,29.478 0,-21.506 105.947,0 9.207,21.506 -115.154,0 z" /></g></g></g></g><g
       id="g32"><g
         clip-path="url(#clipPath36)"
         id="g34"><g
           id="g40"><g
             id="g42"><path
               id="path50"
               style="fill:url(#linearGradient44);stroke:none"
               d="m 133.479,7.972 -105.947,0 0,21.505 115.153,0 -9.206,-21.505 z" /></g></g></g></g><g
       id="g52"><g
         clip-path="url(#clipPath56)"
         id="g54"><g
           transform="translate(135.6853,29.5399)"
           id="g60"><path
             id="path62"
             style="fill:#ffffff;fill-opacity:1;fill-rule:nonzero;stroke:none"
             d="m 0,0 -114.807,0 c -1.978,1.255 -4.316,1.992 -6.832,1.992 -7.058,0 -12.781,-5.723 -12.781,-12.782 0,-7.059 5.723,-12.781 12.781,-12.781 2.516,0 4.854,0.737 6.832,1.991 l 105.601,0 L 0,0 Z" /></g><g
           transform="translate(27.6588,13.5772)"
           id="g64"><path
             id="path66"
             style="fill:#000000;fill-opacity:1;fill-rule:nonzero;stroke:none"
             d="M 0,0 C -0.002,0.002 -0.004,0.004 -0.006,0.006 L 0.065,-0.066 C 0.056,-0.055 0.027,-0.027 0,0" /></g><g
           transform="translate(23.9871,15.9175)"
           id="g68"><path
             id="path70"
             style="fill:#000000;fill-opacity:1;fill-rule:nonzero;stroke:none"
             d="m 0,0 c 0.04,0.062 -0.206,0.211 -0.206,0.211 -0.001,0 -0.176,0.113 -0.183,0.117 C -0.427,0.321 -0.442,0.32 -0.486,0.307 l -0.531,0.298 -0.066,-0.083 -0.44,0.276 c 0.049,0.124 0.043,0.271 -0.031,0.418 -0.038,0.077 -0.078,0.153 -0.119,0.23 l 0.488,-0.301 c 0.189,0.085 0.33,0.315 0.363,0.524 l -1.647,1.066 c -0.009,0.013 -0.018,0.026 -0.026,0.038 l 0.09,0.154 C -2.387,2.959 -2.396,3 -2.427,3.02 l -0.276,0.177 c -0.027,0.017 -0.06,0.012 -0.082,-0.007 -0.468,0.662 -0.871,1.189 -0.948,1.386 -0.074,0.188 -0.806,0.64 -0.806,0.64 0,0 -0.045,0.16 -0.069,0.214 -0.021,0.047 -0.485,0.473 -0.656,0.604 0.17,0.112 0.332,0.219 0.352,0.235 0.695,0.545 0.856,0.362 1.023,0.696 0.147,0.294 0.558,0.947 0.551,1.19 -0.008,0.242 -0.155,0.44 -0.228,0.529 -0.073,0.088 -0.264,0.624 -0.345,1.087 -0.015,0.082 -0.048,0.182 -0.092,0.289 0.009,0.303 -0.121,0.64 -0.175,0.714 -0.02,0.028 -0.121,0.036 -0.255,0.029 -0.293,0.345 -1.097,1.116 -2.404,1.066 C -8.736,11.797 -8.928,9.491 -9.06,9.271 -9.192,9.051 -9.221,8.346 -9.221,8.272 c 0,-0.073 -0.397,-0.514 -0.456,-0.72 -0.047,-0.163 0.181,-0.541 0.173,-0.56 l -1.812,-1.004 c -0.452,-0.25 -0.666,-0.484 -1.415,-1.73 -0.199,0.116 -0.376,0.206 -0.523,0.264 0.039,0.057 0.292,0.409 0.348,0.521 0,0 0.431,1.094 0.464,1.271 0.033,0.176 0.448,0.032 0.591,0.242 0.143,0.209 0.407,0.496 0.33,0.881 -0.077,0.385 -0.304,0.617 -0.304,0.617 0,0 0.041,0.656 -0.34,1.484 -0.634,1.379 -2.747,1.508 -3.796,0.541 -0.703,-0.647 -0.481,-0.97 -0.811,-1.492 -0.059,-0.06 -0.32,-0.223 -0.353,-0.312 -0.03,-0.085 -0.131,-0.687 -0.189,-1.045 -0.027,-0.171 0.043,-0.342 0.183,-0.442 0.096,-0.069 0.204,-0.135 0.282,-0.155 0.076,-0.019 0.183,-0.021 0.279,-0.018 0.133,0.004 0.247,-0.088 0.272,-0.218 0.031,-0.157 0.085,-0.347 0.176,-0.414 -0.011,-0.463 -0.241,-0.884 -0.241,-0.884 -0.116,-0.326 -0.114,-0.482 -0.114,-0.482 -0.126,-0.056 -0.316,0.176 -0.443,0.115 -0.659,-0.317 -1.358,-0.716 -1.358,-0.716 0,0 -0.776,-0.497 -1.068,-0.765 -0.869,-0.795 -0.994,-2.17 -1.059,-2.417 -0.022,-0.083 -0.187,-0.356 -0.217,-0.451 0.008,-0.038 0.082,-0.428 0.079,-0.767 -0.002,-0.203 -0.093,-0.42 -0.079,-0.564 0.019,-0.19 0.197,-0.424 0.217,-0.543 0.155,-0.929 0.313,-1.433 1.04,-2.226 0.253,-0.041 0.514,-0.032 0.73,-0.021 0.17,0.008 0.322,-0.103 0.366,-0.267 0.075,-0.278 0.091,-0.366 0.165,-0.51 0.309,-0.597 0.188,-0.934 -0.006,-1.765 -2.555,2.201 -4.175,5.458 -4.175,9.087 0,6.612 5.379,11.992 11.991,11.992 6.612,0 11.992,-5.38 11.992,-11.992 0,-1.236 -0.189,-2.429 -0.538,-3.552 L 0,0 Z m -2.36,-5.021 c 0,0 -0.081,0.05 -0.108,0.066 -0.008,0.005 -0.014,0.011 -0.02,0.018 -0.071,0.086 0.012,0.328 0.012,0.328 0,0 0.133,0.158 0.104,0.288 l 0.022,-0.014 0.08,0.151 -1.123,0.671 -0.089,-0.115 0.971,-0.606 -1.153,0.677 -0.005,0.003 c -0.002,0.144 -0.006,0.282 -0.01,0.41 -0.025,0.734 -0.048,1.097 -0.048,1.097 0.583,0 1.206,0.443 1.467,0.705 0.112,0.112 0.186,0.261 0.229,0.438 0.014,0.061 0.618,-0.036 0.842,0.224 0,0 0.947,-0.465 1.059,-0.537 0,0 0.402,-0.258 0.907,-0.581 -0.572,-1.371 -1.391,-2.614 -2.402,-3.672 l -0.735,0.449 z m -1.304,0.143 0.998,-0.611 0.179,-0.109 0.455,-0.278 c -0.535,-0.509 -1.117,-0.969 -1.738,-1.374 0.056,0.267 0.096,1.303 0.106,2.372 M 9.143,-6.369 8.199,-5.76 8.113,-5.741 7.94,-5.63 c 0,0 0.408,0.566 0.344,0.607 C 8.283,-5.022 8.27,-5.013 8.258,-5.006 8.247,-4.999 8.235,-4.997 8.223,-4.998 8.197,-5.001 8.151,-5.005 8.139,-4.997 8.127,-4.989 8.112,-4.946 8.103,-4.921 8.1,-4.909 8.091,-4.899 8.081,-4.892 L 8.028,-4.858 C 8.002,-4.841 7.899,-4.93 7.916,-5.01 7.78,-5.112 7.547,-5.377 7.547,-5.377 l -2.459,1.582 c 0,0 0.014,0.045 -0.015,0.067 -0.273,0.198 -0.149,0.396 -0.149,0.396 -0.01,0.026 -0.042,0.084 -0.065,0.1 l -0.69,0.449 -0.134,0.033 -0.309,0.198 0.011,0.146 -0.071,0.071 c -0.058,0.056 -0.039,0.053 -0.1,0.044 l -1.375,0.883 c 0.451,1.341 0.686,2.76 0.686,4.215 0,3.518 -1.37,6.826 -3.857,9.314 -2.488,2.487 -5.796,3.857 -9.314,3.857 -3.518,0 -6.826,-1.37 -9.313,-3.857 -2.488,-2.488 -3.858,-5.796 -3.858,-9.314 0,-3.518 1.37,-6.826 3.858,-9.313 2.487,-2.488 5.795,-3.858 9.313,-3.858 3.518,0 6.826,1.37 9.314,3.858 0.029,0.029 0.057,0.059 0.086,0.088 l 0.211,-0.129 0.048,-0.101 1.094,-0.666 c 0,0 0.073,-0.029 0.207,0.193 0.034,0.055 0.128,0.244 0.071,0.275 l -1.085,0.667 -0.112,-0.003 -0.133,0.081 c 1.005,1.091 1.806,2.325 2.384,3.653 0.534,-0.342 0.977,-0.626 0.997,-0.639 0.05,-0.032 0.079,-0.031 0.109,-0.015 0.095,-0.061 0.325,-0.182 0.402,-0.062 l 0.197,-0.127 0.067,0.103 3.795,-2.441 -0.072,-0.113 0.198,-0.127 0.145,0.066 0.312,-0.206 0.053,-0.071 0.947,-0.604 c 0.093,0.009 0.222,0.223 0.202,0.315" /></g><g
           transform="translate(51.2966,20.3282)"
           id="g72"><path
             id="path74"
             style="fill:#000000;fill-opacity:1;fill-rule:nonzero;stroke:none"
             d="m 0,0 0,2.93 c 0,0.117 -0.095,0.212 -0.212,0.212 l -3.098,0 c -0.117,0 -0.212,-0.095 -0.212,-0.212 l 0,-2.93 c 0,-0.117 0.095,-0.212 0.212,-0.212 l 3.098,0 C -0.095,-0.212 0,-0.117 0,0 m 1.266,-2.637 c 0,-0.087 1.497,-4.727 1.499,-4.733 0.043,-0.137 -0.059,-0.276 -0.202,-0.276 l -2.456,0 c -0.093,0 -0.174,0.06 -0.202,0.148 l -1.493,4.713 c -0.027,0.088 -0.109,0.148 -0.201,0.148 l -1.521,0 c -0.117,0 -0.212,-0.095 -0.212,-0.212 l 0,-4.585 c 0,-0.117 -0.095,-0.212 -0.212,-0.212 l -2.477,0 c -0.117,0 -0.212,0.095 -0.212,0.212 l 0,4.797 0,2.425 0,3.354 0,2.214 c 0,0.117 0.095,0.211 0.212,0.211 l 6.783,0 C 1.858,5.567 2.9,4.525 2.9,3.239 l 0,-3.134 c 0,-2.576 -1.634,-2.276 -1.634,-2.742 m 22.914,8.216 -2.375,0 c -0.117,0 -0.212,-0.095 -0.212,-0.212 l 0,-2.128 c 0,-0.393 -0.109,-0.778 -0.316,-1.113 L 19.681,-0.455 18.03,2.246 C 17.826,2.578 17.719,2.961 17.719,3.35 l 0,2.017 c 0,0.117 -0.095,0.212 -0.212,0.212 l -2.477,0 c -0.117,0 -0.212,-0.095 -0.212,-0.212 l 0,-2.641 c 0,-0.196 0.055,-0.388 0.158,-0.555 l 3.16,-5.125 0.07,-0.114 0,-4.355 c 0,-0.117 0.094,-0.212 0.211,-0.212 l 2.477,0 c 0.117,0 0.212,0.095 0.212,0.212 l 0,4.431 0.064,0.104 3.068,5.061 c 0.101,0.166 0.154,0.355 0.154,0.549 l 0,2.645 c 0,0.117 -0.095,0.212 -0.212,0.212 m 44.665,-5.821 0,3.093 c 0,0.117 -0.095,0.211 -0.212,0.211 l -3.098,0 c -0.117,0 -0.212,-0.094 -0.212,-0.211 l 0,-3.093 c 0,-0.117 0.095,-0.211 0.212,-0.211 l 3.098,0 c 0.117,0 0.212,0.094 0.212,0.211 m 0.36,-2.684 -3.67,0 c -0.117,0 -0.212,-0.095 -0.212,-0.212 l 0,-4.296 c 0,-0.117 -0.095,-0.211 -0.212,-0.211 l -2.477,0 c -0.117,0 -0.211,0.094 -0.211,0.211 l 0,4.798 0,2.425 0,3.354 0,2.213 c 0,0.117 0.094,0.212 0.211,0.212 l 6.571,0 c 1.403,0 2.541,-1.137 2.541,-2.541 l 0,-3.413 c 0,-1.403 -1.138,-2.54 -2.541,-2.54 m -33.77,2.591 c -0.925,0.238 -2.39,0.62 -4.709,1.231 -0.093,0.025 -0.159,0.109 -0.159,0.205 l 0,1.923 c 0,0.117 0.095,0.212 0.212,0.212 l 3.016,0 c 0.117,0 0.212,-0.095 0.212,-0.212 l 0,-1.25 c 0,-0.117 0.095,-0.212 0.212,-0.212 l 2.477,0 c 0.117,0 0.211,0.095 0.211,0.212 l 0,1.333 c 0,1.403 -1.137,2.541 -2.54,2.541 l -4.118,0 c -1.421,0 -2.566,-1.167 -2.539,-2.589 0.016,-0.856 0.034,-1.779 0.048,-2.542 0.017,-0.932 0.642,-1.743 1.539,-1.998 1.752,-0.497 1.365,-0.386 4.663,-1.225 0.094,-0.024 0.162,-0.109 0.162,-0.206 l 0,-2.191 c 0,-0.117 -0.095,-0.211 -0.212,-0.211 l -3.267,0 c -0.117,0 -0.211,0.094 -0.211,0.211 l 0,1.168 c 0,0.117 -0.095,0.212 -0.212,0.212 l -2.477,0 c -0.117,0 -0.212,-0.096 -0.212,-0.213 0,-0.886 -10e-4,-1.128 -0.002,-1.213 -0.022,-1.417 1.122,-2.577 2.54,-2.577 l 4.417,0 c 1.404,0 2.541,1.137 2.539,2.541 -10e-4,0.683 -0.002,1.571 -0.003,2.8 0,0.965 -0.652,1.808 -1.587,2.05 m -53.347,3.451 c 0.002,-1.624 0.003,-4.217 0.004,-8.289 0,-1.397 1.143,-2.541 2.54,-2.541 l 4.163,0 c 1.403,0 2.541,1.138 2.541,2.541 l 0,4.175 c 0,0.117 -0.097,0.212 -0.214,0.212 -4.437,0 -0.867,-0.002 -4.195,-0.002 -0.117,0 -0.213,-0.096 -0.213,-0.212 0,-0.429 0,-1.395 0,-1.823 0,-0.117 0.095,-0.212 0.211,-0.212 l 1.325,0 c 0.118,0 0.213,-0.095 0.212,-0.213 l -0.011,-1.723 c 0,-0.117 -0.095,-0.211 -0.211,-0.211 l -3.036,0 c -0.117,0 -0.212,0.095 -0.212,0.212 l 0,7.884 c 0,0.117 0.095,0.212 0.212,0.212 l 3.084,0 c 0.117,0 0.212,-0.096 0.211,-0.213 l -0.007,-1.239 c -0.001,-0.118 0.094,-0.213 0.211,-0.213 l 2.421,0 c 0.117,0 0.212,0.095 0.212,0.212 l 0,1.444 c 0,1.403 -1.138,2.541 -2.541,2.541 l -4.166,0 c -1.404,0 -2.542,-1.138 -2.541,-2.542 m 71.623,-0.202 0,-7.884 c 0,-0.117 0.094,-0.212 0.211,-0.212 l 3.284,0 c 0.117,0 0.212,0.095 0.212,0.212 l 0,7.884 c 0,0.117 -0.095,0.212 -0.212,0.212 l -3.284,0 c -0.117,0 -0.211,-0.095 -0.211,-0.212 m 6.605,0.203 0,-8.29 c 0,-1.403 -1.137,-2.541 -2.54,-2.541 l -4.425,0 c -1.403,0 -2.541,1.138 -2.541,2.541 l 0,8.29 c 0,1.403 1.138,2.541 2.541,2.541 l 4.425,0 c 1.403,0 2.54,-1.138 2.54,-2.541 m -46.92,0.131 0,2.108 c 0,0.117 -0.095,0.212 -0.212,0.212 l -5.262,0 -2.689,0 C 5.116,5.568 5.021,5.473 5.021,5.356 l 0,-2.32 0,-2.558 0,-2.532 0,-3.059 0,-2.321 c 0,-0.117 0.095,-0.211 0.212,-0.211 l 2.689,0 5.474,0 c 0.117,0 0.212,0.094 0.212,0.211 l 0,2.109 c 0,0.117 -0.095,0.212 -0.212,0.212 l -5.263,0 c -0.117,0 -0.211,0.094 -0.211,0.211 l 0,2.636 c 0,0.117 0.094,0.212 0.211,0.212 l 4.528,0 c 0.117,0 0.212,0.095 0.212,0.211 l 0,2.063 c 0,0.117 -0.095,0.212 -0.212,0.212 l -4.528,0 c -0.117,0 -0.211,0.095 -0.211,0.212 l 0,2.18 c 0,0.117 0.094,0.212 0.211,0.212 l 5.051,0 c 0.117,0 0.212,0.095 0.212,0.212 m 32.584,2.32 2.477,0 c 0.117,0 0.211,-0.095 0.211,-0.212 l 0,-12.79 c 0,-0.117 -0.094,-0.211 -0.211,-0.211 l -2.477,0 c -0.117,0 -0.212,0.094 -0.212,0.211 l 0,5.125 c 0,0.117 -0.095,0.212 -0.212,0.212 l -3.298,0 c -0.117,0 -0.212,-0.095 -0.212,-0.212 l 0,-5.125 c 0,-0.117 -0.095,-0.211 -0.212,-0.211 l -2.477,0 c -0.117,0 -0.212,0.094 -0.212,0.211 l 0,12.79 c 0,0.117 0.095,0.212 0.212,0.212 l 2.477,0 c 0.117,0 0.212,-0.095 0.212,-0.212 l 0,-4.71 c 0,-0.116 0.095,-0.211 0.212,-0.211 l 3.298,0 c 0.117,0 0.212,0.095 0.212,0.211 l 0,4.71 c 0,0.117 0.095,0.212 0.212,0.212" /></g></g></g></g></svg>
